<svg xmlns="http://www.w3.org/2000/svg" xmlns:xlink="http://www.w3.org/1999/xlink" width="1112" height="834" viewBox="0 0 1112 834"><defs><style>.a,.m,.p{fill:none;}.b{clip-path:url(#d);}.c{clip-path:url(#a);}.d,.l{fill:#bce0fd;}.e,.k{fill:#f1f9ff;}.f,.o,.q,.s{fill:#2699fb;}.f,.h,.q,.r{font-size:15px;}.f,.h,.s{font-family:Helvetica-Bold, Helvetica;font-weight:700;}.g{fill:rgba(38,153,251,0.75);}.h,.i,.j,.r{fill:#fff;}.k,.l,.p{stroke:#bce0fd;}.m{stroke:#7fc4fd;}.n{fill:#7fc4fd;}.p{stroke-width:2px;}.q,.r{font-family:Helvetica;}.s{font-size:22px;}.t,.u{stroke:none;}.u{fill:#bce0fd;}</style><clipPath id="a"><rect class="a" width="888" height="180"/></clipPath><clipPath id="d"><rect width="1112" height="834"/></clipPath></defs><g id="c" class="b"><rect class="i" width="1112" height="834"/><g transform="translate(-8081 -5451)"><g class="c" transform="translate(8101 5819)"><g transform="translate(-8101 -5819)"><rect class="d" width="203" height="132" transform="translate(8101 5819)"/><g transform="translate(8101 5819)"><path class="e" d="M203,132H0V0H203V132ZM90.432,59.277a1.974,1.974,0,0,0-1.835,1.2L80.249,79.722a2,2,0,0,0,1.834,2.8h38.839a2,2,0,0,0,1.836-2.794L111.617,53.936a2,2,0,0,0-3.672,0L98.706,75.322,92.267,60.481A1.974,1.974,0,0,0,90.432,59.277Z" transform="translate(0)"/></g><text class="f" transform="translate(8294 5937)"><tspan x="-38.364" y="0">37:20</tspan></text><text class="f" transform="translate(8101 5961)"><tspan x="0" y="12">Filset label aliquam eu </tspan><tspan x="0" y="31">metus at arcu c.1967 </tspan><tspan x="0" y="50">sagittis </tspan></text></g><g transform="translate(-7878 -5819)"><rect class="d" width="203" height="132" transform="translate(8101 5819)"/><g transform="translate(8101 5819)"><path class="e" d="M203,132H0V0H203V132ZM90.432,59.277a1.974,1.974,0,0,0-1.835,1.2L80.249,79.722a2,2,0,0,0,1.834,2.8h38.839a2,2,0,0,0,1.836-2.794L111.617,53.936a2,2,0,0,0-3.672,0L98.706,75.322,92.267,60.481A1.974,1.974,0,0,0,90.432,59.277Z" transform="translate(0)"/></g><text class="f" transform="translate(8294 5937)"><tspan x="-38.364" y="0">37:20</tspan></text><text class="f" transform="translate(8101 5961)"><tspan x="0" y="12">Filset label aliquam eu </tspan><tspan x="0" y="31">metus at arcu c.1967 </tspan><tspan x="0" y="50">sagittis </tspan></text></g><g transform="translate(-7655 -5819)"><rect class="d" width="203" height="132" transform="translate(8101 5819)"/><g transform="translate(8101 5819)"><path class="e" d="M203,132H0V0H203V132ZM90.432,59.277a1.974,1.974,0,0,0-1.835,1.2L80.249,79.722a2,2,0,0,0,1.834,2.8h38.839a2,2,0,0,0,1.836-2.794L111.617,53.936a2,2,0,0,0-3.672,0L98.706,75.322,92.267,60.481A1.974,1.974,0,0,0,90.432,59.277Z" transform="translate(0)"/></g><text class="f" transform="translate(8294 5937)"><tspan x="-38.364" y="0">37:20</tspan></text><text class="f" transform="translate(8101 5961)"><tspan x="0" y="12">Filset label aliquam eu </tspan><tspan x="0" y="31">metus at arcu c.1967 </tspan><tspan x="0" y="50">sagittis </tspan></text></g><g transform="translate(-7432 -5819)"><rect class="d" width="203" height="132" transform="translate(8101 5819)"/><g transform="translate(8101 5819)"><path class="e" d="M203,132H0V0H203V132ZM90.432,59.277a1.974,1.974,0,0,0-1.835,1.2L80.249,79.722a2,2,0,0,0,1.834,2.8h38.839a2,2,0,0,0,1.836-2.794L111.617,53.936a2,2,0,0,0-3.672,0L98.706,75.322,92.267,60.481A1.974,1.974,0,0,0,90.432,59.277Z" transform="translate(0)"/></g><text class="f" transform="translate(8294 5937)"><tspan x="-38.364" y="0">37:20</tspan></text><text class="f" transform="translate(8101 5961)"><tspan x="0" y="12">Filset label aliquam eu </tspan><tspan x="0" y="31">metus at arcu c.1967 </tspan><tspan x="0" y="50">sagittis </tspan></text></g></g><g transform="translate(223)"><rect class="g" width="203" height="132" transform="translate(8101 5819)"/><text class="h" transform="translate(8202.5 5890)"><tspan x="-53.06" y="0">NOW PLAYING</tspan></text></g></g><rect class="i" width="546" height="492" transform="translate(576 60)"/><g transform="translate(-124 -13)"><g class="j" transform="translate(144 73)"><path class="t" d="M 555.2022705078125 287.4168701171875 L 0.5000333189964294 287.4168701171875 L 0.5000333189964294 0.500021755695343 L 555.2022705078125 0.500021755695343 L 555.2022705078125 287.4168701171875 Z"/><path class="u" d="M 0.99993896484375 1.000030517578125 L 0.99993896484375 286.9168701171875 L 554.7021484375 286.9168701171875 L 554.7021484375 1.000030517578125 L 0.99993896484375 1.000030517578125 M -6.103515625e-05 3.0517578125e-05 L 555.7021484375 3.0517578125e-05 L 555.7021484375 287.9168701171875 L -6.103515625e-05 287.9168701171875 L -6.103515625e-05 3.0517578125e-05 Z"/></g><circle class="d" cx="24" cy="24" r="24" transform="translate(416 193)"/><path class="i" d="M9.293,2.793a2,2,0,0,1,3.413,0L20.14,14.957A2,2,0,0,1,18.434,18H3.566A2,2,0,0,1,1.86,14.957Z" transform="translate(452 206) rotate(90)"/><g class="k" transform="translate(144 334)"><rect class="t" width="556" height="27"/><rect class="a" x="0.5" y="0.5" width="555" height="26"/></g><path class="l" d="M0,0H289.39" transform="translate(185.302 347.786)"/><g transform="translate(617.416 343.562)"><line class="m" x2="70.666" transform="translate(0 4.225)"/><circle class="n" cx="4" cy="4" r="4" transform="translate(62.584 0.438)"/></g><ellipse class="n" cx="4.5" cy="4" rx="4.5" ry="4" transform="translate(181 344)"/><path class="n" d="M3.793,2.793a2,2,0,0,1,3.413,0L9.14,5.957A2,2,0,0,1,7.434,9H3.566A2,2,0,0,1,1.86,5.957Z" transform="translate(162 343) rotate(90)"/></g><rect class="o" width="546" height="78" transform="translate(576 195)"/><rect class="e" width="105" height="41" transform="translate(593 61)"/><g class="p" transform="translate(718 61)"><rect class="t" width="107" height="41"/><rect class="a" x="1" y="1" width="105" height="39"/></g><text class="f" transform="translate(614 87)"><tspan x="0" y="0">Tristique</tspan></text><text class="q" transform="translate(593 129)"><tspan x="0" y="12">Morbi odio lectus, maximus vel bibendum eu.</tspan></text><text class="f" transform="translate(710 129)"><tspan x="351.978" y="12">2:25</tspan></text><text class="q" transform="translate(593 168)"><tspan x="0" y="12">Curabitur aliquet nulla vel suscipit placerat. </tspan></text><text class="r" transform="translate(593 207)"><tspan x="0" y="12">Pellentesque in ullamcorper mi, sit amet maximus lorem. </tspan><tspan x="0" y="30" xml:space="preserve">In ac consectetur sapien, vel tincidunt magna.  M, sit </tspan><tspan x="0" y="48">amet maximus lorem. In ac consectetur sapien.</tspan></text><text class="q" transform="translate(593 286)"><tspan x="0" y="12">Vivamus dignissim, purus ac faucibus elementum, risus </tspan><tspan x="0" y="30">elit tincidunt lorem.</tspan></text><text class="q" transform="translate(593 343)"><tspan x="0" y="12">Integer rutrum gravida lectus sit amet rutrum. </tspan></text><text class="f" transform="translate(710 168)"><tspan x="351.978" y="12">4:37</tspan></text><text class="h" transform="translate(710 207)"><tspan x="351.978" y="12">5:02</tspan></text><text class="f" transform="translate(710 286)"><tspan x="351.978" y="12">7:10</tspan></text><text class="f" transform="translate(710 343)"><tspan x="343.636" y="12">10:49</tspan></text><text class="f" transform="translate(739 87)"><tspan x="0" y="0">Praesent</tspan></text><text class="q" transform="translate(593 382)"><tspan x="0" y="12">Pellentesque sagittis.</tspan></text><text class="q" transform="translate(593 420)"><tspan x="0" y="12">Donec vitae enim ut metus maximus ullamcorper at </tspan><tspan x="0" y="30">mollis ex.</tspan></text><text class="q" transform="translate(593 478)"><tspan x="0" y="12">Praesent maximus nibh et est pharetra, nec accumsan </tspan><tspan x="0" y="30">nunc ultrices. </tspan></text><text class="q" transform="translate(593 535)"><tspan x="0" y="12">Sed tincidunt ligula sit amet facilisis.</tspan></text><text class="f" transform="translate(710 382)"><tspan x="343.636" y="12">12:13</tspan></text><text class="f" transform="translate(710 420)"><tspan x="343.636" y="12">15:00</tspan></text><text class="f" transform="translate(710 478)"><tspan x="343.636" y="12">18:34</tspan></text><text class="f" transform="translate(710 535)"><tspan x="343.636" y="12">23:45</tspan></text><text class="s" transform="translate(20 41)"><tspan x="0" y="0">Aliquam eu metus at arcu c.1967 sagittis mollis ut ac</tspan></text><text class="s" transform="translate(20 614)"><tspan x="0" y="0">Auilaquam functum</tspan></text><g class="c" transform="translate(20 639)"><g transform="translate(-8729 -5787)"><rect class="d" width="203" height="132" transform="translate(8729 5787)"/><g transform="translate(8729 5787)"><path class="e" d="M203,132H0V0H203V132ZM90.432,59.277a1.974,1.974,0,0,0-1.835,1.2L80.249,79.722a2,2,0,0,0,1.834,2.8h38.839a2,2,0,0,0,1.836-2.794L111.617,53.936a2,2,0,0,0-3.672,0L98.706,75.322,92.267,60.481A1.974,1.974,0,0,0,90.432,59.277Z" transform="translate(0)"/></g><text class="f" transform="translate(8729 5929)"><tspan x="0" y="12">Filset label aliquam eu </tspan><tspan x="0" y="31">metus at arcu c.1967 </tspan><tspan x="0" y="50">sagittis </tspan></text><g transform="translate(8729 5787)"><path class="e" d="M203,132H0V0H203V132ZM90.432,59.277a1.974,1.974,0,0,0-1.835,1.2L80.249,79.722a2,2,0,0,0,1.834,2.8h38.839a2,2,0,0,0,1.836-2.794L111.617,53.936a2,2,0,0,0-3.672,0L98.706,75.322,92.267,60.481A1.974,1.974,0,0,0,90.432,59.277Z" transform="translate(0)"/></g></g><g transform="translate(-8506 -5787)"><rect class="d" width="203" height="132" transform="translate(8729 5787)"/><g transform="translate(8729 5787)"><path class="e" d="M203,132H0V0H203V132ZM90.432,59.277a1.974,1.974,0,0,0-1.835,1.2L80.249,79.722a2,2,0,0,0,1.834,2.8h38.839a2,2,0,0,0,1.836-2.794L111.617,53.936a2,2,0,0,0-3.672,0L98.706,75.322,92.267,60.481A1.974,1.974,0,0,0,90.432,59.277Z" transform="translate(0)"/></g><text class="f" transform="translate(8729 5929)"><tspan x="0" y="12">Filset label aliquam eu </tspan><tspan x="0" y="31">metus at arcu c.1967 </tspan><tspan x="0" y="50">sagittis </tspan></text><g transform="translate(8729 5787)"><path class="e" d="M203,132H0V0H203V132ZM90.432,59.277a1.974,1.974,0,0,0-1.835,1.2L80.249,79.722a2,2,0,0,0,1.834,2.8h38.839a2,2,0,0,0,1.836-2.794L111.617,53.936a2,2,0,0,0-3.672,0L98.706,75.322,92.267,60.481A1.974,1.974,0,0,0,90.432,59.277Z" transform="translate(0)"/></g></g><g transform="translate(-8283 -5787)"><rect class="d" width="203" height="132" transform="translate(8729 5787)"/><g transform="translate(8729 5787)"><path class="e" d="M203,132H0V0H203V132ZM90.432,59.277a1.974,1.974,0,0,0-1.835,1.2L80.249,79.722a2,2,0,0,0,1.834,2.8h38.839a2,2,0,0,0,1.836-2.794L111.617,53.936a2,2,0,0,0-3.672,0L98.706,75.322,92.267,60.481A1.974,1.974,0,0,0,90.432,59.277Z" transform="translate(0)"/></g><text class="f" transform="translate(8729 5929)"><tspan x="0" y="12">Filset label aliquam eu </tspan><tspan x="0" y="31">metus at arcu c.1967 </tspan><tspan x="0" y="50">sagittis </tspan></text><g transform="translate(8729 5787)"><path class="e" d="M203,132H0V0H203V132ZM90.432,59.277a1.974,1.974,0,0,0-1.835,1.2L80.249,79.722a2,2,0,0,0,1.834,2.8h38.839a2,2,0,0,0,1.836-2.794L111.617,53.936a2,2,0,0,0-3.672,0L98.706,75.322,92.267,60.481A1.974,1.974,0,0,0,90.432,59.277Z" transform="translate(0)"/></g></g><g transform="translate(-8060 -5787)"><rect class="d" width="203" height="132" transform="translate(8729 5787)"/><g transform="translate(8729 5787)"><path class="e" d="M203,132H0V0H203V132ZM90.432,59.277a1.974,1.974,0,0,0-1.835,1.2L80.249,79.722a2,2,0,0,0,1.834,2.8h38.839a2,2,0,0,0,1.836-2.794L111.617,53.936a2,2,0,0,0-3.672,0L98.706,75.322,92.267,60.481A1.974,1.974,0,0,0,90.432,59.277Z" transform="translate(0)"/></g><text class="f" transform="translate(8729 5929)"><tspan x="0" y="12">Filset label aliquam eu </tspan><tspan x="0" y="31">metus at arcu c.1967 </tspan><tspan x="0" y="50">sagittis </tspan></text><g transform="translate(8729 5787)"><path class="e" d="M203,132H0V0H203V132ZM90.432,59.277a1.974,1.974,0,0,0-1.835,1.2L80.249,79.722a2,2,0,0,0,1.834,2.8h38.839a2,2,0,0,0,1.836-2.794L111.617,53.936a2,2,0,0,0-3.672,0L98.706,75.322,92.267,60.481A1.974,1.974,0,0,0,90.432,59.277Z" transform="translate(0)"/></g></g></g></g></svg>