<svg xmlns="http://www.w3.org/2000/svg" xmlns:xlink="http://www.w3.org/1999/xlink" width="1920" height="775" viewBox="0 0 1920 775"><defs><style>.a{clip-path:url(#c);}.b,.f,.p{fill:#2699fb;}.c,.g,.i,.j,.o,.t{fill:#fff;}.c{font-size:28px;}.c,.f,.g,.i,.p{font-family:Helvetica-Bold, Helvetica;}.c,.f,.g,.i,.p,.t{font-weight:700;}.d,.l,.q{fill:#bce0fd;}.e{fill:#f1f9ff;}.f,.i,.l{font-size:16px;}.g,.o,.p,.t{font-size:20px;}.h{fill:rgba(38,153,251,0.75);}.k,.m,.n,.s,.w{fill:none;}.k,.n{stroke:#7fc4fd;}.l,.o{font-family:Helvetica;}.m,.q{stroke:#bce0fd;}.n{stroke-width:2px;}.r{fill:#7fc4fd;}.s{stroke:#707070;}.t{font-family:AkkuratPro-Bold, Akkurat Pro;}.u{fill:url(#a);}.v{stroke:none;}</style><linearGradient id="a" y1="0.572" x2="1" y2="0.572" gradientUnits="objectBoundingBox"><stop offset="0" stop-color="#2699fb" stop-opacity="0"/><stop offset="1" stop-color="#2699fb"/></linearGradient><clipPath id="c"><rect width="1920" height="775"/></clipPath></defs><g id="b" class="a"><rect class="j" width="1920" height="775"/><g transform="translate(-301 -273)"><path class="b" d="M0,0H1920V775H0Z" transform="translate(301 273)"/><text class="c" transform="translate(369 350)"><tspan x="0" y="0">Aliquam eu metus at arcu c.1967 sagittis mollis ut ac</tspan></text><g transform="translate(-35 87)"><g transform="translate(1513 -579)"><rect class="d" width="172.225" height="111.686" transform="translate(95 956)"/><g transform="translate(95 956)"><path class="e" d="M173,112H0V0H173V112ZM84.121,69.978h0a2.052,2.052,0,0,0,.4.039H102.6a2,2,0,0,0,1.834-2.8l-9.04-20.833a2,2,0,0,0-3.669,0l-7.6,17.523L78.9,51.937a2,2,0,0,0-3.667,0l-6.659,15.28a2,2,0,0,0,1.834,2.8H83.726a2.033,2.033,0,0,0,.395-.039Z"/></g></g><text class="f" transform="translate(1771 478)"><tspan x="-40.922" y="0">37:20</tspan></text></g><g transform="translate(-35 229)"><g transform="translate(1513 -579)"><rect class="d" width="172.225" height="111.686" transform="translate(95 956)"/><g transform="translate(95 956)"><path class="e" d="M173,112H0V0H173V112ZM84.121,69.978h0a2.052,2.052,0,0,0,.4.039H102.6a2,2,0,0,0,1.834-2.8l-9.04-20.833a2,2,0,0,0-3.669,0l-7.6,17.523L78.9,51.937a2,2,0,0,0-3.667,0l-6.659,15.28a2,2,0,0,0,1.834,2.8H83.726a2.033,2.033,0,0,0,.395-.039Z"/></g></g><text class="f" transform="translate(1771 478)"><tspan x="-40.922" y="0">37:20</tspan></text></g><g transform="translate(-35 371)"><g transform="translate(1513 -579)"><rect class="d" width="172.225" height="111.686" transform="translate(95 956)"/><g transform="translate(95 956)"><path class="e" d="M173,112H0V0H173V112ZM84.121,69.978h0a2.052,2.052,0,0,0,.4.039H102.6a2,2,0,0,0,1.834-2.8l-9.04-20.833a2,2,0,0,0-3.669,0l-7.6,17.523L78.9,51.937a2,2,0,0,0-3.667,0l-6.659,15.28a2,2,0,0,0,1.834,2.8H83.726a2.033,2.033,0,0,0,.395-.039Z"/></g></g><text class="f" transform="translate(1771 478)"><tspan x="-40.922" y="0">37:20</tspan></text></g><text class="g" transform="translate(1776 474)"><tspan x="0" y="15">Filset label aliquam eu metus </tspan><tspan x="0" y="40">at arcu c.1967 sagittis </tspan></text><text class="g" transform="translate(1776 616)"><tspan x="0" y="15">Filset label aliquam eu metus </tspan><tspan x="0" y="40">at arcu c.1967 sagittis </tspan></text><text class="g" transform="translate(1776 758)"><tspan x="0" y="15">Filset label aliquam eu metus </tspan><tspan x="0" y="40">at arcu c.1967 sagittis </tspan></text><rect class="h" width="173" height="112" transform="translate(1573 606)"/><text class="i" transform="translate(1659.5 670)"><tspan x="-56.598" y="0">NOW PLAYING</tspan></text><path class="j" d="M0,0H1163.837V603H0Z" transform="translate(369 377)"/><circle class="d" cx="50" cy="50" r="50" transform="translate(939 629)"/><path class="j" d="M22.336,2.5a2,2,0,0,1,3.328,0L45.927,32.891A2,2,0,0,1,44.263,36H3.737a2,2,0,0,1-1.664-3.109Z" transform="translate(1013 655) rotate(90)"/><line class="k" x1="1106" transform="translate(369.5 309.5)"/><line class="k" x1="558" transform="translate(1540.5 309.5)"/><line class="k" y2="11" transform="translate(369.5 304.5)"/><text class="l" transform="translate(1533 314)"><tspan x="-45.367" y="0">61.8%</tspan></text><rect class="e" width="132" height="47" transform="translate(1573 377)"/><g class="m" transform="translate(1725 377)"><rect class="v" width="132" height="47"/><rect class="w" x="0.5" y="0.5" width="131" height="46"/></g><g class="n" transform="translate(1877 377)"><rect class="v" width="132" height="47"/><rect class="w" x="1" y="1" width="130" height="45"/></g><text class="o" transform="translate(1750 408)"><tspan x="0" y="0">Tristique</tspan></text><text class="p" transform="translate(1601 408)"><tspan x="0" y="0">Vimarcu</tspan></text><text class="o" transform="translate(1902 408)"><tspan x="0" y="0">Praesent</tspan></text><text class="l" transform="translate(2153 314)"><tspan x="-45.367" y="0">38.2%</tspan></text><rect class="e" width="1164" height="55" transform="translate(369 925)"/><rect class="e" width="55" height="55" transform="translate(369 925)"/><path class="q" d="M0,0H606.085" transform="translate(455.5 952.5)"/><line class="k" x2="148" transform="translate(1360.5 952.5)"/><circle class="r" cx="8.5" cy="8.5" r="8.5" transform="translate(1492 944)"/><circle class="r" cx="8.5" cy="8.5" r="8.5" transform="translate(447 944)"/><path class="r" d="M10.336,2.5a2,2,0,0,1,3.328,0l8.263,12.394A2,2,0,0,1,20.263,18H3.737a2,2,0,0,1-1.664-3.109Z" transform="translate(406 941) rotate(90)"/><path class="s" d="M9054.881,847.984" transform="translate(-8709 -12)"/><g transform="translate(-35 505)"><g transform="translate(1513 -579)"><rect class="d" width="172.225" height="111.686" transform="translate(95 956)"/><g transform="translate(95 956)"><path class="e" d="M173,112H0V0H173V112ZM84.121,69.978h0a2.052,2.052,0,0,0,.4.039H102.6a2,2,0,0,0,1.834-2.8l-9.04-20.833a2,2,0,0,0-3.669,0l-7.6,17.523L78.9,51.937a2,2,0,0,0-3.667,0l-6.659,15.28a2,2,0,0,0,1.834,2.8H83.726a2.033,2.033,0,0,0,.395-.039Z"/></g></g><text class="f" transform="translate(1771 478)"><tspan x="-40.922" y="0">37:20</tspan></text></g><text class="t" transform="translate(1776 892)"><tspan x="0" y="19">Filset label aliquam eu metus </tspan><tspan x="0" y="44">at arcu c.1967 sagittis </tspan></text><rect class="u" width="139" height="620" transform="translate(2187 855) rotate(90)"/></g></g></svg>