<svg xmlns="http://www.w3.org/2000/svg" xmlns:xlink="http://www.w3.org/1999/xlink" width="390" height="844" viewBox="0 0 390 844"><defs><style>.a{clip-path:url(#b);}.b,.d,.k,.o,.p{fill:#fff;}.c,.f{fill:#bce0fd;}.e{fill:#f1f9ff;}.f,.g{stroke:#7fc4fd;}.g,.j,.s{fill:none;}.h{fill:#7fc4fd;}.i,.l,.m,.n{fill:#2699fb;}.i{font-size:20px;}.i,.l,.p{font-family:Helvetica-Bold, Helvetica;}.i,.k,.l,.p{font-weight:700;}.j{stroke:#bce0fd;}.k,.l,.m,.o,.p{font-size:15px;}.k{font-family:AkkuratPro-Bold, Akkurat Pro;}.m,.o{font-family:Helvetica;}.q,.r{stroke:none;}.r{fill:#bce0fd;}</style><clipPath id="b"><rect width="390" height="844"/></clipPath></defs><g id="a" class="a"><rect class="d" width="390" height="844"/><g transform="translate(-144 10)"><g class="b" transform="translate(118.49 73)"><path class="q" d="M 440.3896484375 201.4970245361328 L 0.5000311732292175 201.4970245361328 L 0.5000311732292175 0.500019907951355 L 440.3896484375 0.500019907951355 L 440.3896484375 201.4970245361328 Z"/><path class="r" d="M 0.999969482421875 1.000015258789062 L 0.999969482421875 200.9970245361328 L 439.8895874023438 200.9970245361328 L 439.8895874023438 1.000015258789062 L 0.999969482421875 1.000015258789062 M -3.0517578125e-05 1.52587890625e-05 L 440.8895874023438 1.52587890625e-05 L 440.8895874023438 201.9970245361328 L -3.0517578125e-05 201.9970245361328 L -3.0517578125e-05 1.52587890625e-05 Z"/></g><circle class="c" cx="25" cy="25" r="25" transform="translate(314 149)"/><path class="d" d="M10.336,2.5a2,2,0,0,1,3.328,0l8.263,12.394A2,2,0,0,1,20.263,18H3.737a2,2,0,0,1-1.664-3.109Z" transform="translate(351 162) rotate(90)"/><rect class="e" width="390" height="41" transform="translate(144 256)"/><path class="f" d="M0,0H203.031" transform="translate(182.976 277.782)"/><g transform="translate(467.139 275.122)"><line class="g" x2="49.578" transform="translate(0 2.445)"/><circle class="h" cx="3" cy="3" r="3" transform="translate(43.86 -0.339)"/></g><circle class="h" cx="3" cy="3" r="3" transform="translate(206 274.997)"/><path class="h" d="M5.335.24a.2.2,0,0,1,.33,0l5.12,7.447A.2.2,0,0,1,10.62,8H.38a.2.2,0,0,1-.165-.313Z" transform="translate(166 271) rotate(90)"/></g><text class="i" transform="translate(20 20)"><tspan x="0" y="15">Aliquam eu metus at arcu c.1967 </tspan><tspan x="0" y="39">sagittis mollis ut ac</tspan></text><path class="h" d="M5.5,0,11,10H0Z" transform="translate(368 346) rotate(180)"/><path class="h" d="M5.5,0,11,10H0Z" transform="translate(357 351)"/><rect class="e" width="105" height="41" transform="translate(17 328)"/><g class="j" transform="translate(132 328)"><rect class="q" width="107" height="41"/><rect class="s" x="0.5" y="0.5" width="106" height="40"/></g><text class="k" transform="translate(38 354)"><tspan x="0" y="0">Tristique</tspan></text><text class="l" transform="translate(38 354)"><tspan x="0" y="0">Tristique</tspan></text><text class="l" transform="translate(153 354)"><tspan x="0" y="0">Praesent</tspan></text><rect class="e" width="390" height="458" transform="translate(0 386)"/><text class="m" transform="translate(17 400)"><tspan x="0" y="12">Morbi odio lectus, maximus vel bibendum </tspan><tspan x="0" y="30">eu.</tspan></text><text class="m" transform="translate(17 453)"><tspan x="0" y="12">Curabitur aliquet nulla vel suscipit </tspan><tspan x="0" y="30">placerat. </tspan></text><rect class="n" width="390" height="76" transform="translate(0 496)"/><text class="o" transform="translate(17 509)"><tspan x="0" y="12">Pellentesque in ullamcorper mi, sit amet </tspan><tspan x="0" y="30">maximus lorem. In ac consectetur sapien, </tspan><tspan x="0" y="48">vel tincidunt magna.</tspan></text><text class="p" transform="translate(-12 509)"><tspan x="351.978" y="12">5:02</tspan></text><text class="l" transform="translate(-6 453)"><tspan x="351.978" y="12">4:37</tspan></text><text class="l" transform="translate(-6 401)"><tspan x="351.978" y="12">2:25</tspan></text><text class="m" transform="translate(17 585)"><tspan x="0" y="12">Vivamus dignissim, purus ac faucibus </tspan><tspan x="0" y="30">elementum, risus elit tincidunt lorem.</tspan></text><text class="l" transform="translate(-6 584)"><tspan x="351.978" y="12">7:10</tspan></text><text class="m" transform="translate(17 642)"><tspan x="0" y="12">Integer rutrum gravida lectus sit amet </tspan><tspan x="0" y="30">rutrum. </tspan></text><text class="l" transform="translate(244 642)"><tspan x="93.636" y="12">10:49</tspan></text><text class="m" transform="translate(17 693)"><tspan x="0" y="12">Pellentesque sagittis.</tspan></text><text class="l" transform="translate(226 693)"><tspan x="110.636" y="12">12:13</tspan></text><text class="m" transform="translate(17 727)"><tspan x="0" y="12">Donec vitae enim ut metus maximus </tspan><tspan x="0" y="30">ullamcorper at mollis ex.</tspan></text><text class="l" transform="translate(304 727)"><tspan x="33.636" y="12">15:00</tspan></text><text class="m" transform="translate(17 778)"><tspan x="0" y="12">Praesent maximus nibh et est pharetra, nec </tspan><tspan x="0" y="30">accumsan nunc ultrices. </tspan></text><text class="l" transform="translate(317 777)"><tspan x="20.636" y="12">18:34</tspan></text><text class="m" transform="translate(17 831)"><tspan x="0" y="12">Sed tincidunt ligula sit amet facilisis.</tspan></text><text class="l" transform="translate(255 831)"><tspan x="82.636" y="12">23:45</tspan></text></g></svg>