<svg xmlns="http://www.w3.org/2000/svg" xmlns:xlink="http://www.w3.org/1999/xlink" width="834" height="1112" viewBox="0 0 834 1112"><defs><style>.a{clip-path:url(#b);}.b,.f{fill:#f1f9ff;}.c,.e,.m,.p{fill:#fff;}.d,.g{fill:#bce0fd;}.f,.g,.l{stroke:#bce0fd;}.h,.l,.s{fill:none;}.h{stroke:#7fc4fd;}.i{fill:#7fc4fd;}.j,.k,.n,.o{fill:#2699fb;}.j{font-size:22px;}.j,.m,.o{font-family:AkkuratPro-Bold, Akkurat Pro;font-weight:700;}.l{stroke-width:2px;}.m,.n,.o,.p{font-size:15px;}.n,.p{font-family:AkkuratPro-Regular, Akkurat Pro;}.q,.r{stroke:none;}.r{fill:#bce0fd;}</style><clipPath id="b"><rect width="834" height="1112"/></clipPath></defs><g id="a" class="a"><rect class="e" width="834" height="1112"/><rect class="b" width="834" height="567" transform="translate(0 553)"/><g transform="translate(-124 -13)"><g class="c" transform="translate(144 73)"><path class="q" d="M 794.2353515625 411.26318359375 L 0.5000452399253845 411.26318359375 L 0.5000452399253845 0.4999918043613434 L 794.2353515625 0.4999918043613434 L 794.2353515625 411.26318359375 Z"/><path class="r" d="M 0.99993896484375 1 L 0.99993896484375 410.76318359375 L 793.7352294921875 410.76318359375 L 793.7352294921875 1 L 0.99993896484375 1 M -6.103515625e-05 0 L 794.7352294921875 0 L 794.7352294921875 411.76318359375 L -6.103515625e-05 411.76318359375 L -6.103515625e-05 0 Z"/></g><ellipse class="d" cx="34.5" cy="34" rx="34.5" ry="34" transform="translate(533 245)"/><path class="e" d="M14.315,2.632a2,2,0,0,1,3.369,0L30.03,21.922A2,2,0,0,1,28.345,25H3.655A2,2,0,0,1,1.97,21.922Z" transform="translate(584 263) rotate(90)"/><g class="f" transform="translate(144 446)"><rect class="q" width="795" height="39"/><rect class="s" x="0.5" y="0.5" width="794" height="38"/></g><path class="g" d="M0,0H413.87" transform="translate(203.067 465.985)"/><g transform="translate(821.053 460.57)"><line class="h" x2="101.063" transform="translate(0 5.415)"/><circle class="i" cx="5.5" cy="5.5" r="5.5" transform="translate(89.946 0.43)"/></g><ellipse class="i" cx="6.5" cy="5.5" rx="6.5" ry="5.5" transform="translate(251 461)"/><path class="i" d="M6.3,2.768a2,2,0,0,1,3.407,0l4.421,7.184A2,2,0,0,1,12.421,13H3.579a2,2,0,0,1-1.7-3.048Z" transform="translate(170 459) rotate(90)"/></g><text class="j" transform="translate(20 41)"><tspan x="0" y="0">Aliquam eu metus at arcu c.1967 sagittis mollis ut ac</tspan></text><path class="i" d="M5.5,0,11,10H0Z" transform="translate(800 514) rotate(180)"/><path class="i" d="M5.5,0,11,10H0Z" transform="translate(789 519)"/><rect class="k" width="834" height="40" transform="translate(0 636)"/><rect class="b" width="105" height="41" transform="translate(17 492)"/><g class="l" transform="translate(142 492)"><rect class="q" width="107" height="41"/><rect class="s" x="1" y="1" width="105" height="39"/></g><text class="m" transform="translate(38 518)"><tspan x="0" y="0">Tristique</tspan></text><text class="n" transform="translate(17 567)"><tspan x="0" y="15">Morbi odio lectus, maximus vel bibendum eu.</tspan></text><text class="o" transform="translate(433 567)"><tspan x="351.535" y="15">2:25</tspan></text><text class="n" transform="translate(17 606)"><tspan x="0" y="15">Curabitur aliquet nulla vel suscipit placerat. </tspan></text><text class="p" transform="translate(17 645)"><tspan x="0" y="15">Pellentesque in ullamcorper mi, sit amet maximus lorem. In ac consectetur sapien, vel tincidunt magna.</tspan></text><text class="n" transform="translate(17 684)"><tspan x="0" y="15">Vivamus dignissim, purus ac faucibus elementum, risus elit tincidunt lorem.</tspan></text><text class="n" transform="translate(17 723)"><tspan x="0" y="15">Integer rutrum gravida lectus sit amet rutrum. </tspan></text><text class="n" transform="translate(17 918)"><tspan x="0" y="15">Nulla non mauris sit amet neque lobortis ultrices.</tspan></text><text class="o" transform="translate(433 606)"><tspan x="351.535" y="15">4:37</tspan></text><text class="m" transform="translate(433 645)"><tspan x="351.535" y="15">5:02</tspan></text><text class="o" transform="translate(433 684)"><tspan x="351.535" y="15">7:10</tspan></text><text class="o" transform="translate(433 723)"><tspan x="342.985" y="15">10:49</tspan></text><text class="o" transform="translate(433 918)"><tspan x="342.985" y="15">25:19</tspan></text><text class="o" transform="translate(38 518)"><tspan x="0" y="0">Tristique</tspan></text><text class="o" transform="translate(163 518)"><tspan x="0" y="0">Praesent</tspan></text><text class="n" transform="translate(17 762)"><tspan x="0" y="15">Pellentesque sagittis.</tspan></text><text class="n" transform="translate(17 957)"><tspan x="0" y="15">Pellentesque sagittis.</tspan></text><text class="n" transform="translate(17 801)"><tspan x="0" y="15">Donec vitae enim ut metus maximus ullamcorper at mollis ex.</tspan></text><text class="n" transform="translate(17 996)"><tspan x="0" y="15">Sed non turpis ut lorem bibendum commodo eu et tellus. Fusce cursus felis eget massa cursus, non </tspan><tspan x="0" y="34">maximus.</tspan></text><text class="n" transform="translate(17 840)"><tspan x="0" y="15">Praesent maximus nibh et est pharetra, nec accumsan nunc ultrices. </tspan></text><text class="n" transform="translate(17 1051)"><tspan x="0" y="15" xml:space="preserve">Nullam  facilisis at faucibus et interdum cursus ligula et gravida.</tspan></text><text class="n" transform="translate(17 879)"><tspan x="0" y="15">Sed tincidunt ligula sit amet facilisis.</tspan></text><text class="n" transform="translate(17 1090)"><tspan x="0" y="15">Integer dapibus, felis sed placerat luctus, mi erat aliquam quam, at rhoncus leo augue et justo. </tspan></text><text class="o" transform="translate(433 762)"><tspan x="342.985" y="15">12:13</tspan></text><text class="o" transform="translate(433 957)"><tspan x="342.985" y="15">28:55</tspan></text><text class="o" transform="translate(433 801)"><tspan x="342.985" y="15">15:00</tspan></text><text class="o" transform="translate(433 996)"><tspan x="342.985" y="15">32:08</tspan></text><text class="o" transform="translate(433 840)"><tspan x="342.985" y="15">18:34</tspan></text><text class="o" transform="translate(433 1051)"><tspan x="342.985" y="15">34:57</tspan></text><text class="o" transform="translate(433 879)"><tspan x="342.985" y="15">23:45</tspan></text><text class="o" transform="translate(433 1090)"><tspan x="342.985" y="15">36:01</tspan></text></g></svg>