<svg xmlns="http://www.w3.org/2000/svg" xmlns:xlink="http://www.w3.org/1999/xlink" width="2522" height="2183" viewBox="0 0 2522 2183"><defs><style>.a,.aa,.ab,.o,.s{fill:none;}.b{clip-path:url(#f);}.c,.h,.j,.k,.w,.y{fill:#2699fb;}.d,.i,.l,.q,.u,.v{fill:#fff;}.d,.y{font-size:28px;}.ad,.d,.h,.i,.j,.w,.y{font-family:Helvetica-Bold, Helvetica;}.ad,.d,.h,.i,.j,.k,.l,.u,.w,.y{font-weight:700;}.e{clip-path:url(#a);}.ac,.f,.r{fill:#bce0fd;}.g,.x{fill:#f1f9ff;}.ac,.h,.i,.l{font-size:16px;}.j,.k{font-size:15px;}.k,.l,.u{font-family:AkkuratPro-Bold, Akkurat Pro;}.m{fill:url(#b);}.ad,.n{fill:#076cc3;}.o,.s{stroke:#7fc4fd;}.o{stroke-width:2px;}.p{fill:rgba(38,153,251,0.75);}.ab,.r{stroke:#bce0fd;}.t{fill:#7fc4fd;}.ad,.u,.v,.w,.x{font-size:20px;}.ac,.v,.x{font-family:Helvetica;}.z{clip-path:url(#d);}.aa{stroke:#707070;}.ae{stroke:none;}</style><clipPath id="a"><rect class="a" width="1608" height="211"/></clipPath><linearGradient id="b" y1="0.572" x2="1" y2="0.572" gradientUnits="objectBoundingBox"><stop offset="0" stop-color="#2699fb" stop-opacity="0"/><stop offset="1" stop-color="#2699fb"/></linearGradient><clipPath id="d"><rect class="a" width="1335" height="211"/></clipPath><clipPath id="f"><rect width="2522" height="2183"/></clipPath></defs><g id="e" class="b"><rect class="q" width="2522" height="2183"/><g transform="translate(301 273)"><path class="c" d="M0,0H1920V996H0Z"/><text class="d" transform="translate(68 77)"><tspan x="0" y="0">Aliquam eu metus at arcu c.1967 sagittis mollis ut ac</tspan></text><g class="e" transform="translate(68 737)"><g transform="translate(-95 -745)"><g transform="translate(95 745)"><g transform="translate(-95 -956)"><rect class="f" width="246.727" height="160" transform="translate(95 956)"/><g transform="translate(95 956)"><path class="g" d="M247,160H0V0H247V160ZM110.033,71.2a1.974,1.974,0,0,0-1.834,1.2L97.385,97.225a2,2,0,0,0,1.833,2.8h48.568a2,2,0,0,0,1.835-2.8L135.41,64.458a2,2,0,0,0-3.67,0L120.1,91.3,111.866,72.4A1.974,1.974,0,0,0,110.033,71.2Z" transform="translate(0)"/></g></g><text class="h" transform="translate(237 146)"><tspan x="-40.922" y="0">37:20</tspan></text><text class="i" transform="translate(0 172)"><tspan x="0" y="12">Filset label aliquam eu metus at </tspan><tspan x="0" y="34">arcu c.1967 sagittis </tspan></text></g></g><g transform="translate(173 -745)"><g transform="translate(95 745)"><g transform="translate(-95 -956)"><rect class="f" width="246.727" height="160" transform="translate(95 956)"/><g transform="translate(95 956)"><path class="g" d="M247,160H0V0H247V160ZM110.033,71.2a1.974,1.974,0,0,0-1.834,1.2L97.385,97.225a2,2,0,0,0,1.833,2.8h48.568a2,2,0,0,0,1.835-2.8L135.41,64.458a2,2,0,0,0-3.67,0L120.1,91.3,111.866,72.4A1.974,1.974,0,0,0,110.033,71.2Z" transform="translate(0)"/></g></g><text class="j" transform="translate(237 146)"><tspan x="-38.364" y="0">37:20</tspan></text><text class="i" transform="translate(0 172)"><tspan x="0" y="12">Filset label aliquam eu metus at </tspan><tspan x="0" y="34">arcu c.1967 sagittis </tspan></text></g></g><g transform="translate(441 -745)"><g transform="translate(95 745)"><g transform="translate(-95 -956)"><rect class="f" width="246.727" height="160" transform="translate(95 956)"/><g transform="translate(95 956)"><path class="g" d="M247,160H0V0H247V160ZM110.033,71.2a1.974,1.974,0,0,0-1.834,1.2L97.385,97.225a2,2,0,0,0,1.833,2.8h48.568a2,2,0,0,0,1.835-2.8L135.41,64.458a2,2,0,0,0-3.67,0L120.1,91.3,111.866,72.4A1.974,1.974,0,0,0,110.033,71.2Z" transform="translate(0)"/></g></g><text class="j" transform="translate(237 146)"><tspan x="-38.364" y="0">37:20</tspan></text><text class="i" transform="translate(0 172)"><tspan x="0" y="12">Filset label aliquam eu metus at </tspan><tspan x="0" y="34">arcu c.1967 sagittis </tspan></text></g></g><g transform="translate(709 -745)"><g transform="translate(95 745)"><g transform="translate(-95 -956)"><rect class="f" width="246.727" height="160" transform="translate(95 956)"/><g transform="translate(95 956)"><path class="g" d="M247,160H0V0H247V160ZM110.033,71.2a1.974,1.974,0,0,0-1.834,1.2L97.385,97.225a2,2,0,0,0,1.833,2.8h48.568a2,2,0,0,0,1.835-2.8L135.41,64.458a2,2,0,0,0-3.67,0L120.1,91.3,111.866,72.4A1.974,1.974,0,0,0,110.033,71.2Z" transform="translate(0)"/></g></g><text class="j" transform="translate(237 146)"><tspan x="-38.364" y="0">37:20</tspan></text><text class="i" transform="translate(0 172)"><tspan x="0" y="12">Filset label aliquam eu metus at </tspan><tspan x="0" y="34">arcu c.1967 sagittis </tspan></text></g></g><g transform="translate(977 -745)"><g transform="translate(95 745)"><g transform="translate(-95 -956)"><rect class="f" width="246.727" height="160" transform="translate(95 956)"/><g transform="translate(95 956)"><path class="g" d="M247,160H0V0H247V160ZM110.033,71.2a1.974,1.974,0,0,0-1.834,1.2L97.385,97.225a2,2,0,0,0,1.833,2.8h48.568a2,2,0,0,0,1.835-2.8L135.41,64.458a2,2,0,0,0-3.67,0L120.1,91.3,111.866,72.4A1.974,1.974,0,0,0,110.033,71.2Z" transform="translate(0)"/></g></g><text class="k" transform="translate(187 131)"><tspan x="-39.015" y="15">37:20</tspan></text><text class="i" transform="translate(0 172)"><tspan x="0" y="12">Filset label aliquam eu metus at </tspan><tspan x="0" y="34">arcu c.1967 sagittis </tspan></text></g></g><g transform="translate(1245 -745)"><g transform="translate(95 745)"><g transform="translate(-95 -956)"><rect class="f" width="246.727" height="160" transform="translate(95 956)"/><g transform="translate(95 956)"><path class="g" d="M247,160H0V0H247V160ZM110.033,71.2a1.974,1.974,0,0,0-1.834,1.2L97.385,97.225a2,2,0,0,0,1.833,2.8h48.568a2,2,0,0,0,1.835-2.8L135.41,64.458a2,2,0,0,0-3.67,0L120.1,91.3,111.866,72.4A1.974,1.974,0,0,0,110.033,71.2Z" transform="translate(0)"/></g></g><text class="k" transform="translate(187 131)"><tspan x="-39.015" y="15">37:20</tspan></text><text class="l" transform="translate(0 170)"><tspan x="0" y="15">Filset label aliquam eu metus at </tspan><tspan x="0" y="37">arcu c.1967 sagittis </tspan></text></g></g></g><rect class="m" width="58" height="290" transform="translate(1204 665)"/><rect class="c" width="541" height="892" transform="translate(1232 104)"/><rect class="n" width="620" height="88" transform="translate(1232 250)"/><rect class="g" width="132" height="47" transform="translate(1262 104)"/><g class="o" transform="translate(1414 104)"><rect class="ae" width="132" height="47"/><rect class="a" x="1" y="1" width="130" height="45"/></g><rect class="p" width="251" height="161" transform="translate(68 737)"/><text class="i" transform="translate(191.5 830)"><tspan x="-56.598" y="0">NOW PLAYING</tspan></text><g transform="translate(-76 31)"><path class="q" d="M0,0H1163.837V603H0Z" transform="translate(144 73)"/><circle class="f" cx="50" cy="50" r="50" transform="translate(714 325)"/><path class="q" d="M22.336,2.5a2,2,0,0,1,3.328,0L45.927,32.891A2,2,0,0,1,44.263,36H3.737a2,2,0,0,1-1.664-3.109Z" transform="translate(788 351) rotate(90)"/><rect class="g" width="1164" height="55" transform="translate(144 621)"/><rect class="g" width="55" height="55" transform="translate(144 621)"/><path class="r" d="M0,0H606.085" transform="translate(230.5 648.5)"/><g transform="translate(-49)"><line class="s" x2="148" transform="translate(1184.5 648.5)"/><circle class="t" cx="8.5" cy="8.5" r="8.5" transform="translate(1316 640)"/></g><circle class="t" cx="8.5" cy="8.5" r="8.5" transform="translate(222 640)"/><path class="t" d="M10.336,2.5a2,2,0,0,1,3.328,0l8.263,12.394A2,2,0,0,1,20.263,18H3.737a2,2,0,0,1-1.664-3.109Z" transform="translate(181 637) rotate(90)"/></g><text class="u" transform="translate(1287 135)"><tspan x="0" y="0">Tristique</tspan></text><text class="v" transform="translate(1262 171)"><tspan x="0" y="15">Morbi odio lectus, maximus vel bibendum eu.</tspan></text><text class="i" transform="translate(1403 171)"><tspan x="401.977" y="12">2:25</tspan></text><text class="v" transform="translate(1262 215)"><tspan x="0" y="15">Curabitur aliquet nulla vel suscipit placerat. </tspan></text><text class="v" transform="translate(1262 259)"><tspan x="0" y="15">Pellentesque in ullamcorper mi, sit amet </tspan><tspan x="0" y="39">maximus lorem. In ac consectetur sapien, vel </tspan><tspan x="0" y="63">tincidunt magna.</tspan></text><text class="v" transform="translate(1262 348)"><tspan x="0" y="15">Vivamus dignissim, purus ac faucibus </tspan><tspan x="0" y="39">elementum, risus elit tincidunt lorem.</tspan></text><text class="v" transform="translate(1262 412)"><tspan x="0" y="15">Integer rutrum gravida lectus sit amet rutrum. </tspan></text><text class="i" transform="translate(1403 215)"><tspan x="401.977" y="12">4:37</tspan></text><text class="i" transform="translate(1403 259)"><tspan x="401.977" y="12">5:02</tspan></text><text class="i" transform="translate(1403 348)"><tspan x="401.977" y="12">7:10</tspan></text><text class="i" transform="translate(1403 412)"><tspan x="393.078" y="12">10:49</tspan></text><text class="w" transform="translate(1287 135)"><tspan x="0" y="0">Tristique</tspan></text><text class="x" transform="translate(1439 135)"><tspan x="0" y="0">Praesent</tspan></text><text class="v" transform="translate(1262 457)"><tspan x="0" y="15">Pellentesque sagittis.</tspan></text><text class="v" transform="translate(1262 501)"><tspan x="0" y="15">Donec vitae enim ut metus maximus ullamcorper </tspan><tspan x="0" y="39">at mollis ex.</tspan></text><text class="v" transform="translate(1262 566)"><tspan x="0" y="15">Praesent maximus nibh et est pharetra, nec </tspan><tspan x="0" y="39">accumsan nunc ultrices. </tspan></text><text class="v" transform="translate(1262 631)"><tspan x="0" y="15">Sed tincidunt ligula sit amet facilisis.</tspan></text><text class="v" transform="translate(1262 675)"><tspan x="0" y="15">Nulla non mauris sit amet neque lobortis </tspan><tspan x="0" y="39">ultrices.</tspan></text><text class="v" transform="translate(1262 739)"><tspan x="0" y="15">Sed non turpis ut lorem bibendum commodo eu </tspan><tspan x="0" y="39">et tellus. Fusce cursus felis eget massa cursus, </tspan><tspan x="0" y="63">non maximus.</tspan></text><text class="v" transform="translate(1262 828)"><tspan x="0" y="15" xml:space="preserve">Nullam  facilisis at faucibus et interdum cursus </tspan><tspan x="0" y="39">ligula et gravida.</tspan></text><text class="v" transform="translate(1262 894)"><tspan x="0" y="15">Integer dapibus, felis sed placerat luctus, mi erat </tspan><tspan x="0" y="39">aliquam quam, at rhoncus leo augue et justo. </tspan></text><text class="i" transform="translate(1403 457)"><tspan x="393.078" y="12">12:13</tspan></text><text class="i" transform="translate(1403 501)"><tspan x="393.078" y="12">15:00</tspan></text><text class="i" transform="translate(1403 566)"><tspan x="393.078" y="12">18:34</tspan></text><text class="i" transform="translate(1403 631)"><tspan x="393.078" y="12">23:45</tspan></text><text class="i" transform="translate(1403 675)"><tspan x="393.078" y="12">25:19</tspan></text><text class="i" transform="translate(1403 739)"><tspan x="393.078" y="12">28:55</tspan></text><text class="i" transform="translate(1403 824)"><tspan x="393.078" y="12">32:08</tspan></text><text class="i" transform="translate(1403 890)"><tspan x="393.078" y="12">34:57</tspan></text><rect class="m" width="139" height="620" transform="translate(1852 804) rotate(90)"/><text class="y" transform="translate(832 1063)"><tspan x="0" y="0">Auilaquam functum</tspan></text><g class="z" transform="translate(293 1096)"><g transform="translate(-293 -1096)"><g transform="translate(293 1096)"><g transform="translate(-95 -956)"><rect class="f" width="246.727" height="160" transform="translate(95 956)"/><g transform="translate(95 956)"><path class="g" d="M247,160H0V0H247V160ZM110.033,71.2a1.974,1.974,0,0,0-1.834,1.2L97.385,97.225a2,2,0,0,0,1.833,2.8h48.568a2,2,0,0,0,1.835-2.8L135.41,64.458a2,2,0,0,0-3.67,0L120.1,91.3,111.866,72.4A1.974,1.974,0,0,0,110.033,71.2Z" transform="translate(0)"/></g></g><text class="h" transform="translate(0 172)"><tspan x="0" y="12">Filset label aliquam eu metus at </tspan><tspan x="0" y="34">arcu c.1967 sagittis </tspan></text></g></g><g transform="translate(-25 -1096)"><g transform="translate(293 1096)"><g transform="translate(-95 -956)"><rect class="f" width="246.727" height="160" transform="translate(95 956)"/><g transform="translate(95 956)"><path class="g" d="M247,160H0V0H247V160ZM110.033,71.2a1.974,1.974,0,0,0-1.834,1.2L97.385,97.225a2,2,0,0,0,1.833,2.8h48.568a2,2,0,0,0,1.835-2.8L135.41,64.458a2,2,0,0,0-3.67,0L120.1,91.3,111.866,72.4A1.974,1.974,0,0,0,110.033,71.2Z" transform="translate(0)"/></g></g><text class="h" transform="translate(0 172)"><tspan x="0" y="12">Filset label aliquam eu metus at </tspan><tspan x="0" y="34">arcu c.1967 sagittis </tspan></text></g></g><g transform="translate(243 -1096)"><g transform="translate(293 1096)"><g transform="translate(-95 -956)"><rect class="f" width="246.727" height="160" transform="translate(95 956)"/><g transform="translate(95 956)"><path class="g" d="M247,160H0V0H247V160ZM110.033,71.2a1.974,1.974,0,0,0-1.834,1.2L97.385,97.225a2,2,0,0,0,1.833,2.8h48.568a2,2,0,0,0,1.835-2.8L135.41,64.458a2,2,0,0,0-3.67,0L120.1,91.3,111.866,72.4A1.974,1.974,0,0,0,110.033,71.2Z" transform="translate(0)"/></g></g><text class="h" transform="translate(0 172)"><tspan x="0" y="12">Filset label aliquam eu metus at </tspan><tspan x="0" y="34">arcu c.1967 sagittis </tspan></text></g></g><g transform="translate(511 -1096)"><g transform="translate(293 1096)"><g transform="translate(-95 -956)"><rect class="f" width="246.727" height="160" transform="translate(95 956)"/><g transform="translate(95 956)"><path class="g" d="M247,160H0V0H247V160ZM110.033,71.2a1.974,1.974,0,0,0-1.834,1.2L97.385,97.225a2,2,0,0,0,1.833,2.8h48.568a2,2,0,0,0,1.835-2.8L135.41,64.458a2,2,0,0,0-3.67,0L120.1,91.3,111.866,72.4A1.974,1.974,0,0,0,110.033,71.2Z" transform="translate(0)"/></g></g><text class="h" transform="translate(0 172)"><tspan x="0" y="12">Filset label aliquam eu metus at </tspan><tspan x="0" y="34">arcu c.1967 sagittis </tspan></text></g></g><g transform="translate(779 -1096)"><g transform="translate(293 1096)"><g transform="translate(-95 -956)"><rect class="f" width="246.727" height="160" transform="translate(95 956)"/><g transform="translate(95 956)"><path class="g" d="M247,160H0V0H247V160ZM110.033,71.2a1.974,1.974,0,0,0-1.834,1.2L97.385,97.225a2,2,0,0,0,1.833,2.8h48.568a2,2,0,0,0,1.835-2.8L135.41,64.458a2,2,0,0,0-3.67,0L120.1,91.3,111.866,72.4A1.974,1.974,0,0,0,110.033,71.2Z" transform="translate(0)"/></g></g><text class="h" transform="translate(0 172)"><tspan x="0" y="12">Filset label aliquam eu metus at </tspan><tspan x="0" y="34">arcu c.1967 sagittis </tspan></text></g></g></g></g><path class="aa" d="M9054.881,847.984" transform="translate(-8709 -12)"/><path class="s" d="M8908.757,746.961h-30V916.291h30" transform="translate(-8627 286)"/><path class="s" d="M8908.757,746.961h-30V976.353h30" transform="translate(-8627 575)"/><path class="s" d="M8908.757,746.961h-30v559.532h30" transform="translate(-8627 -343.203)"/><path class="s" d="M8908.757,746.961h-30v754.532h30" transform="translate(11143.571 1949.252) rotate(180)"/><path class="s" d="M8908.757,746.961h-30V1291.7h30" transform="translate(2872.249 -8650.732) rotate(90)"/><line class="s" x1="1106" transform="translate(369.5 309.5)"/><line class="s" x1="558" transform="translate(1540.5 309.5)"/><line class="s" y2="11" transform="translate(369.5 304.5)"/><g class="ab" transform="translate(301 273)"><rect class="ae" width="1920" height="1384"/><rect class="a" x="0.5" y="0.5" width="1919" height="1383"/></g><text class="ac" transform="translate(2153 314)"><tspan x="-45.367" y="0">38.2%</tspan></text><text class="ac" transform="translate(1533 314)"><tspan x="-45.367" y="0">61.8%</tspan></text><text class="ad" transform="translate(217 692)"><tspan x="-131.523" y="0">HTML 5 Video</tspan></text><text class="ad" transform="translate(217 1113)"><tspan x="-54.102" y="0">Video</tspan><tspan x="-78.936" y="24">Streams</tspan></text><text class="ad" transform="translate(1852.5 209)"><tspan x="-51.118" y="0">Navigation</tspan></text><text class="ad" transform="translate(2284 832)"><tspan x="0" y="0">Navigation</tspan><tspan x="0" y="24">Tracks</tspan></text><text class="ad" transform="translate(217 1445)"><tspan x="-90.039" y="0">Auxiliary </tspan><tspan x="-68.926" y="24">Images</tspan></text></g></svg>