<svg xmlns="http://www.w3.org/2000/svg" xmlns:xlink="http://www.w3.org/1999/xlink" width="390" height="844" viewBox="0 0 390 844"><defs><style>.a,.h{fill:none;}.b{clip-path:url(#d);}.c,.e,.n{fill:#fff;}.d,.g{fill:#bce0fd;}.f,.k{fill:#f1f9ff;}.f,.g{stroke:#bce0fd;}.h{stroke:#7fc4fd;}.i{fill:#7fc4fd;}.j{clip-path:url(#a);}.l,.p,.q{fill:#2699fb;}.l,.n{font-size:15px;}.l,.n,.p,.q{font-family:AkkuratPro-Bold, Akkurat Pro;font-weight:700;}.m{fill:rgba(38,153,251,0.75);}.o{font-family:AkkuratPro-Regular, Akkurat Pro;font-weight:400;}.p{font-size:20px;}.q{font-size:22px;}.r{clip-path:url(#b);}.s,.t{stroke:none;}.t{fill:#bce0fd;}</style><clipPath id="a"><rect class="a" width="888" height="180"/></clipPath><clipPath id="b"><rect class="a" width="1010" height="187"/></clipPath><clipPath id="d"><rect width="390" height="844"/></clipPath></defs><g id="c" class="b"><rect class="e" width="390" height="844"/><g transform="translate(-144 10)"><g class="c" transform="translate(144 73)"><path class="s" d="M 389.3701782226562 201.4970245361328 L 0.5000238418579102 201.4970245361328 L 0.5000238418579102 0.500019907951355 L 389.3701782226562 0.500019907951355 L 389.3701782226562 201.4970245361328 Z"/><path class="t" d="M 0.999969482421875 1.000015258789062 L 0.999969482421875 200.9970245361328 L 388.8701171875 200.9970245361328 L 388.8701171875 1.000015258789062 L 0.999969482421875 1.000015258789062 M -3.0517578125e-05 1.52587890625e-05 L 389.8701171875 1.52587890625e-05 L 389.8701171875 201.9970245361328 L -3.0517578125e-05 201.9970245361328 L -3.0517578125e-05 1.52587890625e-05 Z"/></g><circle class="d" cx="25" cy="25" r="25" transform="translate(314 149)"/><path class="e" d="M10.336,2.5a2,2,0,0,1,3.328,0l8.263,12.394A2,2,0,0,1,20.263,18H3.737a2,2,0,0,1-1.664-3.109Z" transform="translate(351 162) rotate(90)"/><g class="f" transform="translate(144 256)"><rect class="s" width="390" height="41"/><rect class="a" x="0.5" y="0.5" width="389" height="40"/></g><path class="g" d="M0,0H203.031" transform="translate(182.976 277.782)"/><g transform="translate(467.139 275.122)"><line class="h" x2="49.578" transform="translate(0 2.445)"/><circle class="i" cx="3" cy="3" r="3" transform="translate(43.86 -0.339)"/></g><circle class="i" cx="3" cy="3" r="3" transform="translate(206 274.997)"/><path class="i" d="M5.335.24a.2.2,0,0,1,.33,0l5.12,7.447A.2.2,0,0,1,10.62,8H.38a.2.2,0,0,1-.165-.313Z" transform="translate(166 271) rotate(90)"/></g><g transform="translate(0 50)"><g transform="translate(-8081 -5451)"><g class="j" transform="translate(8101 5819)"><g transform="translate(-8101 -5819)"><rect class="d" width="203" height="132" transform="translate(8101 5819)"/><g transform="translate(8101 5819)"><path class="k" d="M203,132H0V0H203V132ZM90.432,59.277a1.974,1.974,0,0,0-1.835,1.2L80.249,79.722a2,2,0,0,0,1.834,2.8h38.839a2,2,0,0,0,1.836-2.794L111.617,53.936a2,2,0,0,0-3.672,0L98.706,75.322,92.267,60.481A1.974,1.974,0,0,0,90.432,59.277Z" transform="translate(0)"/></g><text class="l" transform="translate(8244 5922)"><tspan x="-39.015" y="15">37:20</tspan></text><text class="l" transform="translate(8101 5961)"><tspan x="0" y="15">Filset label aliquam eu </tspan><tspan x="0" y="34">metus at arcu c.1967 sagittis </tspan></text></g><g transform="translate(-7878 -5819)"><rect class="d" width="203" height="132" transform="translate(8101 5819)"/><g transform="translate(8101 5819)"><path class="k" d="M203,132H0V0H203V132ZM90.432,59.277a1.974,1.974,0,0,0-1.835,1.2L80.249,79.722a2,2,0,0,0,1.834,2.8h38.839a2,2,0,0,0,1.836-2.794L111.617,53.936a2,2,0,0,0-3.672,0L98.706,75.322,92.267,60.481A1.974,1.974,0,0,0,90.432,59.277Z" transform="translate(0)"/></g><text class="l" transform="translate(8244 5922)"><tspan x="-39.015" y="15">37:20</tspan></text><text class="l" transform="translate(8101 5961)"><tspan x="0" y="15">Filset label aliquam eu </tspan><tspan x="0" y="34">metus at arcu c.1967 sagittis </tspan></text></g><g transform="translate(-7655 -5819)"><rect class="d" width="203" height="132" transform="translate(8101 5819)"/><g transform="translate(8101 5819)"><path class="k" d="M203,132H0V0H203V132ZM90.432,59.277a1.974,1.974,0,0,0-1.835,1.2L80.249,79.722a2,2,0,0,0,1.834,2.8h38.839a2,2,0,0,0,1.836-2.794L111.617,53.936a2,2,0,0,0-3.672,0L98.706,75.322,92.267,60.481A1.974,1.974,0,0,0,90.432,59.277Z" transform="translate(0)"/></g><text class="l" transform="translate(8244 5922)"><tspan x="-39.015" y="15">37:20</tspan></text><text class="l" transform="translate(8101 5961)"><tspan x="0" y="15">Filset label aliquam eu </tspan><tspan x="0" y="34">metus at arcu c.1967 sagittis </tspan></text></g><g transform="translate(-7432 -5819)"><rect class="d" width="203" height="132" transform="translate(8101 5819)"/><g transform="translate(8101 5819)"><path class="k" d="M203,132H0V0H203V132ZM90.432,59.277a1.974,1.974,0,0,0-1.835,1.2L80.249,79.722a2,2,0,0,0,1.834,2.8h38.839a2,2,0,0,0,1.836-2.794L111.617,53.936a2,2,0,0,0-3.672,0L98.706,75.322,92.267,60.481A1.974,1.974,0,0,0,90.432,59.277Z" transform="translate(0)"/></g><text class="l" transform="translate(8244 5922)"><tspan x="-39.015" y="15">37:20</tspan></text><text class="l" transform="translate(8101 5961)"><tspan x="0" y="15">Filset label aliquam eu </tspan><tspan x="0" y="34">metus at arcu c.1967 sagittis </tspan></text></g></g><g transform="translate(223)"><rect class="m" width="203" height="132" transform="translate(8101 5819)"/><text class="n" transform="translate(8147 5875)"><tspan x="-49.253" y="15">NOW PLAYING</tspan></text></g></g><g transform="translate(20 368)"><path class="k" d="M203,132H0V0H203V132ZM90.432,59.277a1.974,1.974,0,0,0-1.835,1.2L80.249,79.722a2,2,0,0,0,1.834,2.8h38.839a2,2,0,0,0,1.836-2.794L111.617,53.936a2,2,0,0,0-3.672,0L98.706,75.322,92.267,60.481A1.974,1.974,0,0,0,90.432,59.277Z" transform="translate(0)"/></g><g transform="translate(20 368)"><path class="k" d="M203,132H0V0H203V132ZM90.432,59.277a1.974,1.974,0,0,0-1.835,1.2L80.249,79.722a2,2,0,0,0,1.834,2.8h38.839a2,2,0,0,0,1.836-2.794L111.617,53.936a2,2,0,0,0-3.672,0L98.706,75.322,92.267,60.481A1.974,1.974,0,0,0,90.432,59.277Z" transform="translate(0)"/></g></g><text class="l" transform="translate(20 354)"><tspan x="0" y="15">5:02 - </tspan><tspan class="o" y="15">Pellentesque in ullamcorper mi, sit </tspan><tspan class="o" x="0" y="34">amet maximus lorem. In ac consectetur… </tspan></text><text class="l" transform="translate(20 327)"><tspan x="0" y="15">Actum Tristique</tspan></text><text class="p" transform="translate(20 20)"><tspan x="0" y="19">Aliquam eu metus at arcu c.1967 </tspan><tspan x="0" y="43">sagittis mollis ut ac</tspan></text><g transform="translate(0 -185)"><text class="q" transform="translate(20 834)"><tspan x="0" y="0">Auilaquam functum</tspan></text><g class="r" transform="translate(20 859)"><g transform="translate(-8729 -5787)"><rect class="d" width="203" height="132" transform="translate(8729 5787)"/><g transform="translate(8729 5787)"><path class="k" d="M203,132H0V0H203V132ZM90.432,59.277a1.974,1.974,0,0,0-1.835,1.2L80.249,79.722a2,2,0,0,0,1.834,2.8h38.839a2,2,0,0,0,1.836-2.794L111.617,53.936a2,2,0,0,0-3.672,0L98.706,75.322,92.267,60.481A1.974,1.974,0,0,0,90.432,59.277Z" transform="translate(0)"/></g><text class="l" transform="translate(8729 5929)"><tspan x="0" y="15">Filset label aliquam eu </tspan><tspan x="0" y="34">metus at arcu c.1967 sagittis </tspan></text><g transform="translate(8729 5787)"><path class="k" d="M203,132H0V0H203V132ZM90.432,59.277a1.974,1.974,0,0,0-1.835,1.2L80.249,79.722a2,2,0,0,0,1.834,2.8h38.839a2,2,0,0,0,1.836-2.794L111.617,53.936a2,2,0,0,0-3.672,0L98.706,75.322,92.267,60.481A1.974,1.974,0,0,0,90.432,59.277Z" transform="translate(0)"/></g><text class="l" transform="translate(8729 5929)"><tspan x="0" y="15">Filset label aliquam eu </tspan><tspan x="0" y="34">metus at arcu c.1967 sagittis </tspan></text></g><g transform="translate(-8506 -5787)"><rect class="d" width="203" height="132" transform="translate(8729 5787)"/><g transform="translate(8729 5787)"><path class="k" d="M203,132H0V0H203V132ZM90.432,59.277a1.974,1.974,0,0,0-1.835,1.2L80.249,79.722a2,2,0,0,0,1.834,2.8h38.839a2,2,0,0,0,1.836-2.794L111.617,53.936a2,2,0,0,0-3.672,0L98.706,75.322,92.267,60.481A1.974,1.974,0,0,0,90.432,59.277Z" transform="translate(0)"/></g><text class="l" transform="translate(8729 5929)"><tspan x="0" y="15">Filset label aliquam eu </tspan><tspan x="0" y="34">metus at arcu c.1967 sagittis </tspan></text><g transform="translate(8729 5787)"><path class="k" d="M203,132H0V0H203V132ZM90.432,59.277a1.974,1.974,0,0,0-1.835,1.2L80.249,79.722a2,2,0,0,0,1.834,2.8h38.839a2,2,0,0,0,1.836-2.794L111.617,53.936a2,2,0,0,0-3.672,0L98.706,75.322,92.267,60.481A1.974,1.974,0,0,0,90.432,59.277Z" transform="translate(0)"/></g><text class="l" transform="translate(8729 5929)"><tspan x="0" y="15">Filset label aliquam eu </tspan><tspan x="0" y="34">metus at arcu c.1967 sagittis </tspan></text></g><g transform="translate(-8283 -5787)"><rect class="d" width="203" height="132" transform="translate(8729 5787)"/><g transform="translate(8729 5787)"><path class="k" d="M203,132H0V0H203V132ZM90.432,59.277a1.974,1.974,0,0,0-1.835,1.2L80.249,79.722a2,2,0,0,0,1.834,2.8h38.839a2,2,0,0,0,1.836-2.794L111.617,53.936a2,2,0,0,0-3.672,0L98.706,75.322,92.267,60.481A1.974,1.974,0,0,0,90.432,59.277Z" transform="translate(0)"/></g><text class="l" transform="translate(8729 5929)"><tspan x="0" y="15">Filset label aliquam eu </tspan><tspan x="0" y="34">metus at arcu c.1967 sagittis </tspan></text><g transform="translate(8729 5787)"><path class="k" d="M203,132H0V0H203V132ZM90.432,59.277a1.974,1.974,0,0,0-1.835,1.2L80.249,79.722a2,2,0,0,0,1.834,2.8h38.839a2,2,0,0,0,1.836-2.794L111.617,53.936a2,2,0,0,0-3.672,0L98.706,75.322,92.267,60.481A1.974,1.974,0,0,0,90.432,59.277Z" transform="translate(0)"/></g><text class="l" transform="translate(8729 5929)"><tspan x="0" y="15">Filset label aliquam eu </tspan><tspan x="0" y="34">metus at arcu c.1967 sagittis </tspan></text></g><g transform="translate(-8060 -5787)"><rect class="d" width="203" height="132" transform="translate(8729 5787)"/><g transform="translate(8729 5787)"><path class="k" d="M203,132H0V0H203V132ZM90.432,59.277a1.974,1.974,0,0,0-1.835,1.2L80.249,79.722a2,2,0,0,0,1.834,2.8h38.839a2,2,0,0,0,1.836-2.794L111.617,53.936a2,2,0,0,0-3.672,0L98.706,75.322,92.267,60.481A1.974,1.974,0,0,0,90.432,59.277Z" transform="translate(0)"/></g><text class="l" transform="translate(8729 5929)"><tspan x="0" y="15">Filset label aliquam eu </tspan><tspan x="0" y="34">metus at arcu c.1967 sagittis </tspan></text><g transform="translate(8729 5787)"><path class="k" d="M203,132H0V0H203V132ZM90.432,59.277a1.974,1.974,0,0,0-1.835,1.2L80.249,79.722a2,2,0,0,0,1.834,2.8h38.839a2,2,0,0,0,1.836-2.794L111.617,53.936a2,2,0,0,0-3.672,0L98.706,75.322,92.267,60.481A1.974,1.974,0,0,0,90.432,59.277Z" transform="translate(0)"/></g><text class="l" transform="translate(8729 5929)"><tspan x="0" y="15">Filset label aliquam eu </tspan><tspan x="0" y="34">metus at arcu c.1967 sagittis </tspan></text></g><g transform="translate(-7837 -5787)"><rect class="d" width="203" height="132" transform="translate(8729 5787)"/><g transform="translate(8729 5787)"><path class="k" d="M203,132H0V0H203V132ZM90.432,59.277a1.974,1.974,0,0,0-1.835,1.2L80.249,79.722a2,2,0,0,0,1.834,2.8h38.839a2,2,0,0,0,1.836-2.794L111.617,53.936a2,2,0,0,0-3.672,0L98.706,75.322,92.267,60.481A1.974,1.974,0,0,0,90.432,59.277Z" transform="translate(0)"/></g><text class="l" transform="translate(8729 5929)"><tspan x="0" y="15">Filset label aliquam eu </tspan><tspan x="0" y="34">metus at arcu c.1967 sagittis </tspan></text><g transform="translate(8729 5787)"><path class="k" d="M203,132H0V0H203V132ZM90.432,59.277a1.974,1.974,0,0,0-1.835,1.2L80.249,79.722a2,2,0,0,0,1.834,2.8h38.839a2,2,0,0,0,1.836-2.794L111.617,53.936a2,2,0,0,0-3.672,0L98.706,75.322,92.267,60.481A1.974,1.974,0,0,0,90.432,59.277Z" transform="translate(0)"/></g><text class="l" transform="translate(8729 5929)"><tspan x="0" y="15">Filset label aliquam eu </tspan><tspan x="0" y="34">metus at arcu c.1967 sagittis </tspan></text></g></g></g><g transform="translate(-211 -170)"><path class="i" d="M5.5,0,11,10H0Z" transform="translate(568 506)"/><path class="i" d="M5.5,0,11,10H0Z" transform="translate(579 531) rotate(180)"/></g></g></svg>