<svg xmlns="http://www.w3.org/2000/svg" xmlns:xlink="http://www.w3.org/1999/xlink" width="1920" height="2217" viewBox="0 0 1920 2217"><defs><style>.a,.l,.y{fill:none;}.b{clip-path:url(#d);}.c{fill:#f1f9ff;}.d,.e,.q,.r,.t,.u,.v{fill:#fff;}.e,.l,.x{stroke:#bce0fd;}.f,.g,.h,.i,.k,.n,.o,.p{fill:#2699fb;}.g,.k,.u,.v{font-size:20px;}.g,.h,.i,.n,.o,.t{font-family:Helvetica-Bold, Helvetica;}.g,.h,.i,.n,.o,.p,.q,.t,.u{font-weight:700;}.h{font-size:54px;}.i{font-size:28px;}.j,.x{fill:#bce0fd;}.k,.v{font-family:Helvetica;}.m{clip-path:url(#a);}.n,.q,.t{font-size:16px;}.o,.p{font-size:15px;}.p,.q,.u{font-family:AkkuratPro-Bold, Akkurat Pro;}.s{fill:rgba(38,153,251,0.75);}.w{clip-path:url(#b);}.y{stroke:#7fc4fd;}.z{fill:#7fc4fd;}.aa,.ab,.ac{stroke:none;}.ab{fill:#707070;}.ac{fill:#bce0fd;}</style><clipPath id="a"><rect class="a" width="1608" height="211"/></clipPath><clipPath id="b"><rect class="a" width="1335" height="211"/></clipPath><clipPath id="d"><rect width="1920" height="2217"/></clipPath></defs><g id="c" class="b"><rect class="r" width="1920" height="2217"/><path class="c" d="M0,0H1920V273H0Z"/><g class="d" transform="translate(1246 118)"><path class="aa" d="M397,55h0Z"/><path class="ab" d="M 0 55 L 397 55 L 0 55 Z"/></g><g class="e" transform="translate(0 200)"><rect class="aa" width="1920" height="73"/><rect class="a" x="0.5" y="0.5" width="1919" height="72"/></g><path class="f" d="M0,0H1920V50H0Z"/><g transform="translate(0 1657)"><path class="c" d="M0,0H1920V558H0Z"/><text class="g" transform="translate(960 74)"><tspan x="-56.133" y="0">Item Details</tspan></text><text class="h" transform="translate(288 185)"><tspan x="0" y="0">Aliquam eu metus at arcu c.1967</tspan><tspan x="0" y="65">sagittis mollis ut ac</tspan></text><text class="i" transform="translate(1403 159)"><tspan x="0" y="0">Item Metadata</tspan></text><rect class="j" width="140" height="41" transform="translate(288 294)"/><rect class="j" width="140" height="41" transform="translate(448 294)"/><rect class="j" width="220" height="41" transform="translate(608 294)"/><text class="k" transform="translate(1403 242)"><tspan x="0" y="0">63e725d8-c5fa-4214-</tspan><tspan x="0" y="24">a68d-55e02d1a1dfa</tspan></text><rect class="j" width="41" height="41" transform="translate(1403 294)"/><rect class="j" width="41" height="41" transform="translate(1454 294)"/><rect class="j" width="41" height="41" transform="translate(1505 294)"/><path class="l" d="M0,0V226" transform="translate(1369.5 132.5)"/><rect class="j" width="121" height="78" transform="translate(1403 382)"/><text class="g" transform="translate(1464 428)"><tspan x="-14.443" y="0">IIIF</tspan></text><text class="g" transform="translate(1402 192)"><tspan x="0" y="15">Identifier</tspan></text></g><g transform="translate(0 273)"><g class="d"><path class="aa" d="M 1919.5 1024.753784179688 L 0.5 1024.753784179688 L 0.5 0.4999262988567352 L 1919.5 0.4999262988567352 L 1919.5 1024.753784179688 Z"/><path class="ac" d="M 1 0.9998779296875 L 1 1024.253784179688 L 1919 1024.253784179688 L 1919 0.9998779296875 L 1 0.9998779296875 M 0 -0.0001220703125 L 1920 -0.0001220703125 L 1920 1025.253784179688 L 0 1025.253784179688 L 0 -0.0001220703125 Z"/></g><text class="i" transform="translate(68 77)"><tspan x="0" y="0">Aliquam eu metus at arcu c.1967 sagittis mollis ut ac</tspan></text><g class="m" transform="translate(68 737)"><g transform="translate(-95 -745)"><g transform="translate(95 745)"><g transform="translate(-95 -956)"><rect class="j" width="246.727" height="160" transform="translate(95 956)"/><g transform="translate(95 956)"><path class="c" d="M247,160H0V0H247V160ZM110.033,71.2a1.974,1.974,0,0,0-1.834,1.2L97.385,97.225a2,2,0,0,0,1.833,2.8h48.568a2,2,0,0,0,1.835-2.8L135.41,64.458a2,2,0,0,0-3.67,0L120.1,91.3,111.866,72.4A1.974,1.974,0,0,0,110.033,71.2Z" transform="translate(0)"/></g></g><text class="n" transform="translate(237 146)"><tspan x="-40.922" y="0">37:20</tspan></text><text class="n" transform="translate(0 172)"><tspan x="0" y="12">Filset label aliquam eu metus at </tspan><tspan x="0" y="34">arcu c.1967 sagittis </tspan></text></g></g><g transform="translate(173 -745)"><g transform="translate(95 745)"><g transform="translate(-95 -956)"><rect class="j" width="246.727" height="160" transform="translate(95 956)"/><g transform="translate(95 956)"><path class="c" d="M247,160H0V0H247V160ZM110.033,71.2a1.974,1.974,0,0,0-1.834,1.2L97.385,97.225a2,2,0,0,0,1.833,2.8h48.568a2,2,0,0,0,1.835-2.8L135.41,64.458a2,2,0,0,0-3.67,0L120.1,91.3,111.866,72.4A1.974,1.974,0,0,0,110.033,71.2Z" transform="translate(0)"/></g></g><text class="o" transform="translate(237 146)"><tspan x="-38.364" y="0">37:20</tspan></text><text class="n" transform="translate(0 172)"><tspan x="0" y="12">Filset label aliquam eu metus at </tspan><tspan x="0" y="34">arcu c.1967 sagittis </tspan></text></g></g><g transform="translate(441 -745)"><g transform="translate(95 745)"><g transform="translate(-95 -956)"><rect class="j" width="246.727" height="160" transform="translate(95 956)"/><g transform="translate(95 956)"><path class="c" d="M247,160H0V0H247V160ZM110.033,71.2a1.974,1.974,0,0,0-1.834,1.2L97.385,97.225a2,2,0,0,0,1.833,2.8h48.568a2,2,0,0,0,1.835-2.8L135.41,64.458a2,2,0,0,0-3.67,0L120.1,91.3,111.866,72.4A1.974,1.974,0,0,0,110.033,71.2Z" transform="translate(0)"/></g></g><text class="o" transform="translate(237 146)"><tspan x="-38.364" y="0">37:20</tspan></text><text class="n" transform="translate(0 172)"><tspan x="0" y="12">Filset label aliquam eu metus at </tspan><tspan x="0" y="34">arcu c.1967 sagittis </tspan></text></g></g><g transform="translate(709 -745)"><g transform="translate(95 745)"><g transform="translate(-95 -956)"><rect class="j" width="246.727" height="160" transform="translate(95 956)"/><g transform="translate(95 956)"><path class="c" d="M247,160H0V0H247V160ZM110.033,71.2a1.974,1.974,0,0,0-1.834,1.2L97.385,97.225a2,2,0,0,0,1.833,2.8h48.568a2,2,0,0,0,1.835-2.8L135.41,64.458a2,2,0,0,0-3.67,0L120.1,91.3,111.866,72.4A1.974,1.974,0,0,0,110.033,71.2Z" transform="translate(0)"/></g></g><text class="o" transform="translate(237 146)"><tspan x="-38.364" y="0">37:20</tspan></text><text class="n" transform="translate(0 172)"><tspan x="0" y="12">Filset label aliquam eu metus at </tspan><tspan x="0" y="34">arcu c.1967 sagittis </tspan></text></g></g><g transform="translate(977 -745)"><g transform="translate(95 745)"><g transform="translate(-95 -956)"><rect class="j" width="246.727" height="160" transform="translate(95 956)"/><g transform="translate(95 956)"><path class="c" d="M247,160H0V0H247V160ZM110.033,71.2a1.974,1.974,0,0,0-1.834,1.2L97.385,97.225a2,2,0,0,0,1.833,2.8h48.568a2,2,0,0,0,1.835-2.8L135.41,64.458a2,2,0,0,0-3.67,0L120.1,91.3,111.866,72.4A1.974,1.974,0,0,0,110.033,71.2Z" transform="translate(0)"/></g></g><text class="p" transform="translate(187 131)"><tspan x="-39.015" y="15">37:20</tspan></text><text class="n" transform="translate(0 172)"><tspan x="0" y="12">Filset label aliquam eu metus at </tspan><tspan x="0" y="34">arcu c.1967 sagittis </tspan></text></g></g><g transform="translate(1245 -745)"><g transform="translate(95 745)"><g transform="translate(-95 -956)"><rect class="j" width="246.727" height="160" transform="translate(95 956)"/><g transform="translate(95 956)"><path class="c" d="M247,160H0V0H247V160ZM110.033,71.2a1.974,1.974,0,0,0-1.834,1.2L97.385,97.225a2,2,0,0,0,1.833,2.8h48.568a2,2,0,0,0,1.835-2.8L135.41,64.458a2,2,0,0,0-3.67,0L120.1,91.3,111.866,72.4A1.974,1.974,0,0,0,110.033,71.2Z" transform="translate(0)"/></g></g><text class="p" transform="translate(187 131)"><tspan x="-39.015" y="15">37:20</tspan></text><text class="q" transform="translate(0 170)"><tspan x="0" y="15">Filset label aliquam eu metus at </tspan><tspan x="0" y="37">arcu c.1967 sagittis </tspan></text></g></g></g><rect class="r" width="541" height="892" transform="translate(1232 103)"/><rect class="f" width="620" height="88" transform="translate(1232 250)"/><rect class="c" width="132" height="47" transform="translate(1262 104)"/><g class="l" transform="translate(1414 104)"><rect class="aa" width="132" height="47"/><rect class="a" x="0.5" y="0.5" width="131" height="46"/></g><rect class="s" width="251" height="161" transform="translate(68 737)"/><text class="t" transform="translate(191.5 830)"><tspan x="-56.598" y="0">NOW PLAYING</tspan></text><text class="u" transform="translate(1287 135)"><tspan x="0" y="0">Tristique</tspan></text><text class="k" transform="translate(1262 171)"><tspan x="0" y="15">Morbi odio lectus, maximus vel bibendum eu.</tspan></text><text class="n" transform="translate(1403 171)"><tspan x="401.977" y="12">2:25</tspan></text><text class="k" transform="translate(1262 215)"><tspan x="0" y="15">Curabitur aliquet nulla vel suscipit placerat. </tspan></text><text class="v" transform="translate(1262 259)"><tspan x="0" y="15">Pellentesque in ullamcorper mi, sit amet </tspan><tspan x="0" y="39">maximus lorem. In ac consectetur sapien, vel </tspan><tspan x="0" y="63">tincidunt magna.</tspan></text><text class="k" transform="translate(1262 348)"><tspan x="0" y="15">Vivamus dignissim, purus ac faucibus </tspan><tspan x="0" y="39">elementum, risus elit tincidunt lorem.</tspan></text><text class="k" transform="translate(1262 412)"><tspan x="0" y="15">Integer rutrum gravida lectus sit amet rutrum. </tspan></text><text class="n" transform="translate(1403 215)"><tspan x="401.977" y="12">4:37</tspan></text><text class="t" transform="translate(1403 259)"><tspan x="401.977" y="12">5:02</tspan></text><text class="n" transform="translate(1403 348)"><tspan x="401.977" y="12">7:10</tspan></text><text class="n" transform="translate(1403 412)"><tspan x="393.078" y="12">10:49</tspan></text><text class="g" transform="translate(1287 135)"><tspan x="0" y="0">Tristique</tspan></text><text class="g" transform="translate(1439 135)"><tspan x="0" y="0">Praesent</tspan></text><text class="k" transform="translate(1262 457)"><tspan x="0" y="15">Pellentesque sagittis.</tspan></text><text class="k" transform="translate(1262 501)"><tspan x="0" y="15">Donec vitae enim ut metus maximus ullamcorper </tspan><tspan x="0" y="39">at mollis ex.</tspan></text><text class="k" transform="translate(1262 566)"><tspan x="0" y="15">Praesent maximus nibh et est pharetra, nec </tspan><tspan x="0" y="39">accumsan nunc ultrices. </tspan></text><text class="k" transform="translate(1262 631)"><tspan x="0" y="15">Sed tincidunt ligula sit amet facilisis.</tspan></text><text class="k" transform="translate(1262 675)"><tspan x="0" y="15">Nulla non mauris sit amet neque lobortis </tspan><tspan x="0" y="39">ultrices.</tspan></text><text class="k" transform="translate(1262 739)"><tspan x="0" y="15">Sed non turpis ut lorem bibendum commodo eu </tspan><tspan x="0" y="39">et tellus. Fusce cursus felis eget massa cursus, </tspan><tspan x="0" y="63">non maximus.</tspan></text><text class="k" transform="translate(1262 828)"><tspan x="0" y="15" xml:space="preserve">Nullam  facilisis at faucibus et interdum cursus </tspan><tspan x="0" y="39">ligula et gravida.</tspan></text><text class="k" transform="translate(1262 894)"><tspan x="0" y="15">Integer dapibus, felis sed placerat luctus, mi erat </tspan><tspan x="0" y="39">aliquam quam, at rhoncus leo augue et justo. </tspan></text><text class="n" transform="translate(1403 457)"><tspan x="393.078" y="12">12:13</tspan></text><text class="n" transform="translate(1403 501)"><tspan x="393.078" y="12">15:00</tspan></text><text class="n" transform="translate(1403 566)"><tspan x="393.078" y="12">18:34</tspan></text><text class="n" transform="translate(1403 631)"><tspan x="393.078" y="12">23:45</tspan></text><text class="n" transform="translate(1403 675)"><tspan x="393.078" y="12">25:19</tspan></text><text class="n" transform="translate(1403 739)"><tspan x="393.078" y="12">28:55</tspan></text><text class="n" transform="translate(1403 824)"><tspan x="393.078" y="12">32:08</tspan></text><text class="n" transform="translate(1403 890)"><tspan x="393.078" y="12">34:57</tspan></text><text class="i" transform="translate(832 1093)"><tspan x="0" y="0">Auilaquam functum</tspan></text><g class="w" transform="translate(293 1126)"><g transform="translate(-293 -1096)"><g transform="translate(293 1096)"><g transform="translate(-95 -956)"><rect class="j" width="246.727" height="160" transform="translate(95 956)"/><g transform="translate(95 956)"><path class="c" d="M247,160H0V0H247V160ZM110.033,71.2a1.974,1.974,0,0,0-1.834,1.2L97.385,97.225a2,2,0,0,0,1.833,2.8h48.568a2,2,0,0,0,1.835-2.8L135.41,64.458a2,2,0,0,0-3.67,0L120.1,91.3,111.866,72.4A1.974,1.974,0,0,0,110.033,71.2Z" transform="translate(0)"/></g></g><text class="n" transform="translate(0 172)"><tspan x="0" y="12">Filset label aliquam eu metus at </tspan><tspan x="0" y="34">arcu c.1967 sagittis </tspan></text></g></g><g transform="translate(-25 -1096)"><g transform="translate(293 1096)"><g transform="translate(-95 -956)"><rect class="j" width="246.727" height="160" transform="translate(95 956)"/><g transform="translate(95 956)"><path class="c" d="M247,160H0V0H247V160ZM110.033,71.2a1.974,1.974,0,0,0-1.834,1.2L97.385,97.225a2,2,0,0,0,1.833,2.8h48.568a2,2,0,0,0,1.835-2.8L135.41,64.458a2,2,0,0,0-3.67,0L120.1,91.3,111.866,72.4A1.974,1.974,0,0,0,110.033,71.2Z" transform="translate(0)"/></g></g><text class="n" transform="translate(0 172)"><tspan x="0" y="12">Filset label aliquam eu metus at </tspan><tspan x="0" y="34">arcu c.1967 sagittis </tspan></text></g></g><g transform="translate(243 -1096)"><g transform="translate(293 1096)"><g transform="translate(-95 -956)"><rect class="j" width="246.727" height="160" transform="translate(95 956)"/><g transform="translate(95 956)"><path class="c" d="M247,160H0V0H247V160ZM110.033,71.2a1.974,1.974,0,0,0-1.834,1.2L97.385,97.225a2,2,0,0,0,1.833,2.8h48.568a2,2,0,0,0,1.835-2.8L135.41,64.458a2,2,0,0,0-3.67,0L120.1,91.3,111.866,72.4A1.974,1.974,0,0,0,110.033,71.2Z" transform="translate(0)"/></g></g><text class="n" transform="translate(0 172)"><tspan x="0" y="12">Filset label aliquam eu metus at </tspan><tspan x="0" y="34">arcu c.1967 sagittis </tspan></text></g></g><g transform="translate(511 -1096)"><g transform="translate(293 1096)"><g transform="translate(-95 -956)"><rect class="j" width="246.727" height="160" transform="translate(95 956)"/><g transform="translate(95 956)"><path class="c" d="M247,160H0V0H247V160ZM110.033,71.2a1.974,1.974,0,0,0-1.834,1.2L97.385,97.225a2,2,0,0,0,1.833,2.8h48.568a2,2,0,0,0,1.835-2.8L135.41,64.458a2,2,0,0,0-3.67,0L120.1,91.3,111.866,72.4A1.974,1.974,0,0,0,110.033,71.2Z" transform="translate(0)"/></g></g><text class="n" transform="translate(0 172)"><tspan x="0" y="12">Filset label aliquam eu metus at </tspan><tspan x="0" y="34">arcu c.1967 sagittis </tspan></text></g></g><g transform="translate(779 -1096)"><g transform="translate(293 1096)"><g transform="translate(-95 -956)"><rect class="j" width="246.727" height="160" transform="translate(95 956)"/><g transform="translate(95 956)"><path class="c" d="M247,160H0V0H247V160ZM110.033,71.2a1.974,1.974,0,0,0-1.834,1.2L97.385,97.225a2,2,0,0,0,1.833,2.8h48.568a2,2,0,0,0,1.835-2.8L135.41,64.458a2,2,0,0,0-3.67,0L120.1,91.3,111.866,72.4A1.974,1.974,0,0,0,110.033,71.2Z" transform="translate(0)"/></g></g><text class="n" transform="translate(0 172)"><tspan x="0" y="12">Filset label aliquam eu metus at </tspan><tspan x="0" y="34">arcu c.1967 sagittis </tspan></text></g></g></g><g transform="translate(-76 31)"><g class="d" transform="translate(144 73)"><path class="aa" d="M 1163.33740234375 602.5 L 0.4999868869781494 602.5 L 0.4999868869781494 0.5 L 1163.33740234375 0.5 L 1163.33740234375 602.5 Z"/><path class="ac" d="M 1 1 L 1 602 L 1162.83740234375 602 L 1162.83740234375 1 L 1 1 M 0 0 L 1163.83740234375 0 L 1163.83740234375 603 L 0 603 L 0 0 Z"/></g><circle class="j" cx="50" cy="50" r="50" transform="translate(714 325)"/><path class="r" d="M22.336,2.5a2,2,0,0,1,3.328,0L45.927,32.891A2,2,0,0,1,44.263,36H3.737a2,2,0,0,1-1.664-3.109Z" transform="translate(788 351) rotate(90)"/><rect class="c" width="1164" height="55" transform="translate(144 621)"/><rect class="c" width="55" height="55" transform="translate(144 621)"/><path class="x" d="M0,0H606.085" transform="translate(230.5 648.5)"/><g transform="translate(-49)"><line class="y" x2="148" transform="translate(1184.5 648.5)"/><circle class="z" cx="8.5" cy="8.5" r="8.5" transform="translate(1316 640)"/></g><circle class="z" cx="8.5" cy="8.5" r="8.5" transform="translate(222 640)"/><path class="z" d="M10.336,2.5a2,2,0,0,1,3.328,0l8.263,12.394A2,2,0,0,1,20.263,18H3.737a2,2,0,0,1-1.664-3.109Z" transform="translate(181 637) rotate(90)"/></g></g></g></svg>