<svg xmlns="http://www.w3.org/2000/svg" xmlns:xlink="http://www.w3.org/1999/xlink" width="834" height="1112" viewBox="0 0 834 1112"><defs><style>.a,.h{fill:none;}.b{clip-path:url(#d);}.c,.e,.o{fill:#fff;}.d,.g{fill:#bce0fd;}.f,.l{fill:#f1f9ff;}.f,.g{stroke:#bce0fd;}.h{stroke:#7fc4fd;}.i{fill:#7fc4fd;}.j,.m{fill:#2699fb;}.j{font-size:22px;}.j,.m,.o{font-family:Helvetica-Bold, Helvetica;font-weight:700;}.k{clip-path:url(#a);}.m,.o{font-size:15px;}.n{fill:rgba(38,153,251,0.75);}.p{font-family:Helvetica;font-weight:400;}.q{clip-path:url(#b);}.r,.s{stroke:none;}.s{fill:#bce0fd;}</style><clipPath id="a"><rect class="a" width="888" height="180"/></clipPath><clipPath id="b"><rect class="a" width="1010" height="178"/></clipPath><clipPath id="d"><rect width="834" height="1112"/></clipPath></defs><g id="c" class="b"><rect class="e" width="834" height="1112"/><g transform="translate(-124 -13)"><g class="c" transform="translate(144 73)"><path class="r" d="M 794.2353515625 411.26318359375 L 0.5000452399253845 411.26318359375 L 0.5000452399253845 0.4999918043613434 L 794.2353515625 0.4999918043613434 L 794.2353515625 411.26318359375 Z"/><path class="s" d="M 0.99993896484375 1 L 0.99993896484375 410.76318359375 L 793.7352294921875 410.76318359375 L 793.7352294921875 1 L 0.99993896484375 1 M -6.103515625e-05 0 L 794.7352294921875 0 L 794.7352294921875 411.76318359375 L -6.103515625e-05 411.76318359375 L -6.103515625e-05 0 Z"/></g><ellipse class="d" cx="34.5" cy="34" rx="34.5" ry="34" transform="translate(507 245)"/><path class="e" d="M14.315,2.632a2,2,0,0,1,3.369,0L30.03,21.922A2,2,0,0,1,28.345,25H3.655A2,2,0,0,1,1.97,21.922Z" transform="translate(558 263) rotate(90)"/><g class="f" transform="translate(144 446)"><rect class="r" width="795" height="39"/><rect class="a" x="0.5" y="0.5" width="794" height="38"/></g><path class="g" d="M0,0H413.87" transform="translate(203.067 465.985)"/><g transform="translate(821.053 460.57)"><line class="h" x2="101.063" transform="translate(0 5.415)"/><circle class="i" cx="5.5" cy="5.5" r="5.5" transform="translate(89.946 0.43)"/></g><ellipse class="i" cx="6.5" cy="5.5" rx="6.5" ry="5.5" transform="translate(251 461)"/><path class="i" d="M6.3,2.768a2,2,0,0,1,3.407,0l4.421,7.184A2,2,0,0,1,12.421,13H3.579a2,2,0,0,1-1.7-3.048Z" transform="translate(170 459) rotate(90)"/></g><text class="j" transform="translate(20 41)"><tspan x="0" y="0">Aliquam eu metus at arcu c.1967 sagittis mollis ut ac</tspan></text><g transform="translate(0 220)"><g transform="translate(-8081 -5451)"><g class="k" transform="translate(8101 5819)"><g transform="translate(-8101 -5819)"><rect class="d" width="203" height="132" transform="translate(8101 5819)"/><g transform="translate(8101 5819)"><path class="l" d="M203,132H0V0H203V132ZM90.432,59.277a1.974,1.974,0,0,0-1.835,1.2L80.249,79.722a2,2,0,0,0,1.834,2.8h38.839a2,2,0,0,0,1.836-2.794L111.617,53.936a2,2,0,0,0-3.672,0L98.706,75.322,92.267,60.481A1.974,1.974,0,0,0,90.432,59.277Z" transform="translate(0)"/></g><text class="m" transform="translate(8294 5937)"><tspan x="-38.364" y="0">37:20</tspan></text><text class="m" transform="translate(8101 5961)"><tspan x="0" y="12">Filset label aliquam eu </tspan><tspan x="0" y="31">metus at arcu c.1967 </tspan><tspan x="0" y="50">sagittis </tspan></text></g><g transform="translate(-7878 -5819)"><rect class="d" width="203" height="132" transform="translate(8101 5819)"/><g transform="translate(8101 5819)"><path class="l" d="M203,132H0V0H203V132ZM90.432,59.277a1.974,1.974,0,0,0-1.835,1.2L80.249,79.722a2,2,0,0,0,1.834,2.8h38.839a2,2,0,0,0,1.836-2.794L111.617,53.936a2,2,0,0,0-3.672,0L98.706,75.322,92.267,60.481A1.974,1.974,0,0,0,90.432,59.277Z" transform="translate(0)"/></g><text class="m" transform="translate(8294 5937)"><tspan x="-38.364" y="0">37:20</tspan></text><text class="m" transform="translate(8101 5961)"><tspan x="0" y="12">Filset label aliquam eu </tspan><tspan x="0" y="31">metus at arcu c.1967 </tspan><tspan x="0" y="50">sagittis </tspan></text></g><g transform="translate(-7655 -5819)"><rect class="d" width="203" height="132" transform="translate(8101 5819)"/><g transform="translate(8101 5819)"><path class="l" d="M203,132H0V0H203V132ZM90.432,59.277a1.974,1.974,0,0,0-1.835,1.2L80.249,79.722a2,2,0,0,0,1.834,2.8h38.839a2,2,0,0,0,1.836-2.794L111.617,53.936a2,2,0,0,0-3.672,0L98.706,75.322,92.267,60.481A1.974,1.974,0,0,0,90.432,59.277Z" transform="translate(0)"/></g><text class="m" transform="translate(8294 5937)"><tspan x="-38.364" y="0">37:20</tspan></text><text class="m" transform="translate(8101 5961)"><tspan x="0" y="12">Filset label aliquam eu </tspan><tspan x="0" y="31">metus at arcu c.1967 </tspan><tspan x="0" y="50">sagittis </tspan></text></g><g transform="translate(-7432 -5819)"><rect class="d" width="203" height="132" transform="translate(8101 5819)"/><g transform="translate(8101 5819)"><path class="l" d="M203,132H0V0H203V132ZM90.432,59.277a1.974,1.974,0,0,0-1.835,1.2L80.249,79.722a2,2,0,0,0,1.834,2.8h38.839a2,2,0,0,0,1.836-2.794L111.617,53.936a2,2,0,0,0-3.672,0L98.706,75.322,92.267,60.481A1.974,1.974,0,0,0,90.432,59.277Z" transform="translate(0)"/></g><text class="m" transform="translate(8294 5937)"><tspan x="-38.364" y="0">37:20</tspan></text><text class="m" transform="translate(8101 5961)"><tspan x="0" y="12">Filset label aliquam eu </tspan><tspan x="0" y="31">metus at arcu c.1967 </tspan><tspan x="0" y="50">sagittis </tspan></text></g></g><g transform="translate(223)"><rect class="n" width="203" height="132" transform="translate(8101 5819)"/><text class="o" transform="translate(8202.5 5890)"><tspan x="-53.06" y="0">NOW PLAYING</tspan></text></g></g></g><text class="m" transform="translate(20 521)"><tspan x="0" y="12">5:02 - </tspan><tspan class="p" y="12">Pellentesque in ullamcorper mi, sit amet maximus lorem. </tspan><tspan class="p" x="0" y="30">In ac consectetur sapien, vel tincidunt magna.</tspan></text><text class="m" transform="translate(20 494)"><tspan x="0" y="12">Actum Tristique</tspan></text><g transform="translate(221 -4)"><path class="i" d="M5.5,0,11,10H0Z" transform="translate(568 506)"/><path class="i" d="M5.5,0,11,10H0Z" transform="translate(579 531) rotate(180)"/></g><text class="j" transform="translate(20 834)"><tspan x="0" y="0">Auilaquam functum</tspan></text><g class="q" transform="translate(20 859)"><g transform="translate(-8729 -5787)"><rect class="d" width="203" height="132" transform="translate(8729 5787)"/><g transform="translate(8729 5787)"><path class="l" d="M203,132H0V0H203V132ZM90.432,59.277a1.974,1.974,0,0,0-1.835,1.2L80.249,79.722a2,2,0,0,0,1.834,2.8h38.839a2,2,0,0,0,1.836-2.794L111.617,53.936a2,2,0,0,0-3.672,0L98.706,75.322,92.267,60.481A1.974,1.974,0,0,0,90.432,59.277Z" transform="translate(0)"/></g><text class="m" transform="translate(8729 5929)"><tspan x="0" y="12">Filset label aliquam eu </tspan><tspan x="0" y="31">metus at arcu c.1967 </tspan><tspan x="0" y="50">sagittis </tspan></text><g transform="translate(8729 5787)"><path class="l" d="M203,132H0V0H203V132ZM90.432,59.277a1.974,1.974,0,0,0-1.835,1.2L80.249,79.722a2,2,0,0,0,1.834,2.8h38.839a2,2,0,0,0,1.836-2.794L111.617,53.936a2,2,0,0,0-3.672,0L98.706,75.322,92.267,60.481A1.974,1.974,0,0,0,90.432,59.277Z" transform="translate(0)"/></g></g><g transform="translate(-8506 -5787)"><rect class="d" width="203" height="132" transform="translate(8729 5787)"/><g transform="translate(8729 5787)"><path class="l" d="M203,132H0V0H203V132ZM90.432,59.277a1.974,1.974,0,0,0-1.835,1.2L80.249,79.722a2,2,0,0,0,1.834,2.8h38.839a2,2,0,0,0,1.836-2.794L111.617,53.936a2,2,0,0,0-3.672,0L98.706,75.322,92.267,60.481A1.974,1.974,0,0,0,90.432,59.277Z" transform="translate(0)"/></g><text class="m" transform="translate(8729 5929)"><tspan x="0" y="12">Filset label aliquam eu </tspan><tspan x="0" y="31">metus at arcu c.1967 </tspan><tspan x="0" y="50">sagittis </tspan></text><g transform="translate(8729 5787)"><path class="l" d="M203,132H0V0H203V132ZM90.432,59.277a1.974,1.974,0,0,0-1.835,1.2L80.249,79.722a2,2,0,0,0,1.834,2.8h38.839a2,2,0,0,0,1.836-2.794L111.617,53.936a2,2,0,0,0-3.672,0L98.706,75.322,92.267,60.481A1.974,1.974,0,0,0,90.432,59.277Z" transform="translate(0)"/></g></g><g transform="translate(-8283 -5787)"><rect class="d" width="203" height="132" transform="translate(8729 5787)"/><g transform="translate(8729 5787)"><path class="l" d="M203,132H0V0H203V132ZM90.432,59.277a1.974,1.974,0,0,0-1.835,1.2L80.249,79.722a2,2,0,0,0,1.834,2.8h38.839a2,2,0,0,0,1.836-2.794L111.617,53.936a2,2,0,0,0-3.672,0L98.706,75.322,92.267,60.481A1.974,1.974,0,0,0,90.432,59.277Z" transform="translate(0)"/></g><text class="m" transform="translate(8729 5929)"><tspan x="0" y="12">Filset label aliquam eu </tspan><tspan x="0" y="31">metus at arcu c.1967 </tspan><tspan x="0" y="50">sagittis </tspan></text><g transform="translate(8729 5787)"><path class="l" d="M203,132H0V0H203V132ZM90.432,59.277a1.974,1.974,0,0,0-1.835,1.2L80.249,79.722a2,2,0,0,0,1.834,2.8h38.839a2,2,0,0,0,1.836-2.794L111.617,53.936a2,2,0,0,0-3.672,0L98.706,75.322,92.267,60.481A1.974,1.974,0,0,0,90.432,59.277Z" transform="translate(0)"/></g></g><g transform="translate(-8060 -5787)"><rect class="d" width="203" height="132" transform="translate(8729 5787)"/><g transform="translate(8729 5787)"><path class="l" d="M203,132H0V0H203V132ZM90.432,59.277a1.974,1.974,0,0,0-1.835,1.2L80.249,79.722a2,2,0,0,0,1.834,2.8h38.839a2,2,0,0,0,1.836-2.794L111.617,53.936a2,2,0,0,0-3.672,0L98.706,75.322,92.267,60.481A1.974,1.974,0,0,0,90.432,59.277Z" transform="translate(0)"/></g><text class="m" transform="translate(8729 5929)"><tspan x="0" y="12">Filset label aliquam eu </tspan><tspan x="0" y="31">metus at arcu c.1967 </tspan><tspan x="0" y="50">sagittis </tspan></text><g transform="translate(8729 5787)"><path class="l" d="M203,132H0V0H203V132ZM90.432,59.277a1.974,1.974,0,0,0-1.835,1.2L80.249,79.722a2,2,0,0,0,1.834,2.8h38.839a2,2,0,0,0,1.836-2.794L111.617,53.936a2,2,0,0,0-3.672,0L98.706,75.322,92.267,60.481A1.974,1.974,0,0,0,90.432,59.277Z" transform="translate(0)"/></g></g><g transform="translate(-7837 -5787)"><rect class="d" width="203" height="132" transform="translate(8729 5787)"/><g transform="translate(8729 5787)"><path class="l" d="M203,132H0V0H203V132ZM90.432,59.277a1.974,1.974,0,0,0-1.835,1.2L80.249,79.722a2,2,0,0,0,1.834,2.8h38.839a2,2,0,0,0,1.836-2.794L111.617,53.936a2,2,0,0,0-3.672,0L98.706,75.322,92.267,60.481A1.974,1.974,0,0,0,90.432,59.277Z" transform="translate(0)"/></g><text class="m" transform="translate(8729 5929)"><tspan x="0" y="12">Filset label aliquam eu </tspan><tspan x="0" y="31">metus at arcu c.1967 </tspan><tspan x="0" y="50">sagittis </tspan></text><g transform="translate(8729 5787)"><path class="l" d="M203,132H0V0H203V132ZM90.432,59.277a1.974,1.974,0,0,0-1.835,1.2L80.249,79.722a2,2,0,0,0,1.834,2.8h38.839a2,2,0,0,0,1.836-2.794L111.617,53.936a2,2,0,0,0-3.672,0L98.706,75.322,92.267,60.481A1.974,1.974,0,0,0,90.432,59.277Z" transform="translate(0)"/></g></g></g></g></svg>