<svg xmlns="http://www.w3.org/2000/svg" xmlns:xlink="http://www.w3.org/1999/xlink" width="2522" height="2183" viewBox="0 0 2522 2183"><defs><style>.a,.n,.q,.y,.z{fill:none;}.b{clip-path:url(#f);}.c,.e,.j,.s,.t{fill:#fff;}.d,.i,.k,.u,.w{fill:#2699fb;}.e,.w{font-size:28px;}.e,.i,.j,.k,.s,.u,.w{font-family:AkkuratPro-Bold, Akkurat Pro;}.ab,.e,.i,.j,.k,.s,.u,.w{font-weight:700;}.f{clip-path:url(#a);}.aa,.g,.p{fill:#bce0fd;}.h,.v{fill:#f1f9ff;}.aa,.i,.j{font-size:16px;}.k{font-size:15px;}.l{fill:url(#b);}.ab,.m{fill:#076cc3;}.n,.q{stroke:#7fc4fd;}.n{stroke-width:2px;}.o{fill:rgba(38,153,251,0.75);}.p,.z{stroke:#bce0fd;}.r{fill:#7fc4fd;}.ab,.s,.t,.u,.v{font-size:20px;}.aa,.t,.v{font-family:AkkuratPro-Regular, Akkurat Pro;}.x{clip-path:url(#d);}.y{stroke:#707070;}.ab{font-family:HelveticaNeue-Bold, Helvetica Neue;}.ac{stroke:none;}</style><clipPath id="a"><rect class="a" width="1608" height="211"/></clipPath><linearGradient id="b" y1="0.572" x2="1" y2="0.572" gradientUnits="objectBoundingBox"><stop offset="0" stop-color="#2699fb" stop-opacity="0"/><stop offset="1" stop-color="#2699fb"/></linearGradient><clipPath id="d"><rect class="a" width="1327" height="211"/></clipPath><clipPath id="f"><rect width="2522" height="2183"/></clipPath></defs><g id="e" class="b"><rect class="c" width="2522" height="2183"/><g transform="translate(301 273)"><rect class="c" width="1920" height="1384"/><path class="d" d="M0,0H1920V996H0Z"/><text class="e" transform="translate(68 77)"><tspan x="0" y="0">Aliquam eu metus at arcu c.1967 sagittis mollis ut ac</tspan></text><g class="f" transform="translate(68 737)"><g transform="translate(-95 -745)"><g transform="translate(95 745)"><g transform="translate(-95 -956)"><rect class="g" width="246.727" height="160" transform="translate(95 956)"/><g transform="translate(95 956)"><path class="h" d="M247,160H0V0H247V160ZM110.033,71.2a1.974,1.974,0,0,0-1.834,1.2L97.385,97.225a2,2,0,0,0,1.833,2.8h48.568a2,2,0,0,0,1.835-2.8L135.41,64.458a2,2,0,0,0-3.67,0L120.1,91.3,111.866,72.4A1.974,1.974,0,0,0,110.033,71.2Z" transform="translate(0)"/></g></g><text class="i" transform="translate(187 131)"><tspan x="-41.616" y="15">37:20</tspan></text><text class="j" transform="translate(0 170)"><tspan x="0" y="15">Filset label aliquam eu metus at </tspan><tspan x="0" y="37">arcu c.1967 sagittis </tspan></text></g></g><g transform="translate(173 -745)"><g transform="translate(95 745)"><g transform="translate(-95 -956)"><rect class="g" width="246.727" height="160" transform="translate(95 956)"/><g transform="translate(95 956)"><path class="h" d="M247,160H0V0H247V160ZM110.033,71.2a1.974,1.974,0,0,0-1.834,1.2L97.385,97.225a2,2,0,0,0,1.833,2.8h48.568a2,2,0,0,0,1.835-2.8L135.41,64.458a2,2,0,0,0-3.67,0L120.1,91.3,111.866,72.4A1.974,1.974,0,0,0,110.033,71.2Z" transform="translate(0)"/></g></g><text class="k" transform="translate(187 131)"><tspan x="-39.015" y="15">37:20</tspan></text><text class="j" transform="translate(0 170)"><tspan x="0" y="15">Filset label aliquam eu metus at </tspan><tspan x="0" y="37">arcu c.1967 sagittis </tspan></text></g></g><g transform="translate(441 -745)"><g transform="translate(95 745)"><g transform="translate(-95 -956)"><rect class="g" width="246.727" height="160" transform="translate(95 956)"/><g transform="translate(95 956)"><path class="h" d="M247,160H0V0H247V160ZM110.033,71.2a1.974,1.974,0,0,0-1.834,1.2L97.385,97.225a2,2,0,0,0,1.833,2.8h48.568a2,2,0,0,0,1.835-2.8L135.41,64.458a2,2,0,0,0-3.67,0L120.1,91.3,111.866,72.4A1.974,1.974,0,0,0,110.033,71.2Z" transform="translate(0)"/></g></g><text class="k" transform="translate(187 131)"><tspan x="-39.015" y="15">37:20</tspan></text><text class="j" transform="translate(0 170)"><tspan x="0" y="15">Filset label aliquam eu metus at </tspan><tspan x="0" y="37">arcu c.1967 sagittis </tspan></text></g></g><g transform="translate(709 -745)"><g transform="translate(95 745)"><g transform="translate(-95 -956)"><rect class="g" width="246.727" height="160" transform="translate(95 956)"/><g transform="translate(95 956)"><path class="h" d="M247,160H0V0H247V160ZM110.033,71.2a1.974,1.974,0,0,0-1.834,1.2L97.385,97.225a2,2,0,0,0,1.833,2.8h48.568a2,2,0,0,0,1.835-2.8L135.41,64.458a2,2,0,0,0-3.67,0L120.1,91.3,111.866,72.4A1.974,1.974,0,0,0,110.033,71.2Z" transform="translate(0)"/></g></g><text class="k" transform="translate(187 131)"><tspan x="-39.015" y="15">37:20</tspan></text><text class="j" transform="translate(0 170)"><tspan x="0" y="15">Filset label aliquam eu metus at </tspan><tspan x="0" y="37">arcu c.1967 sagittis </tspan></text></g></g><g transform="translate(977 -745)"><g transform="translate(95 745)"><g transform="translate(-95 -956)"><rect class="g" width="246.727" height="160" transform="translate(95 956)"/><g transform="translate(95 956)"><path class="h" d="M247,160H0V0H247V160ZM110.033,71.2a1.974,1.974,0,0,0-1.834,1.2L97.385,97.225a2,2,0,0,0,1.833,2.8h48.568a2,2,0,0,0,1.835-2.8L135.41,64.458a2,2,0,0,0-3.67,0L120.1,91.3,111.866,72.4A1.974,1.974,0,0,0,110.033,71.2Z" transform="translate(0)"/></g></g><text class="k" transform="translate(187 131)"><tspan x="-39.015" y="15">37:20</tspan></text><text class="j" transform="translate(0 170)"><tspan x="0" y="15">Filset label aliquam eu metus at </tspan><tspan x="0" y="37">arcu c.1967 sagittis </tspan></text></g></g><g transform="translate(1245 -745)"><g transform="translate(95 745)"><g transform="translate(-95 -956)"><rect class="g" width="246.727" height="160" transform="translate(95 956)"/><g transform="translate(95 956)"><path class="h" d="M247,160H0V0H247V160ZM110.033,71.2a1.974,1.974,0,0,0-1.834,1.2L97.385,97.225a2,2,0,0,0,1.833,2.8h48.568a2,2,0,0,0,1.835-2.8L135.41,64.458a2,2,0,0,0-3.67,0L120.1,91.3,111.866,72.4A1.974,1.974,0,0,0,110.033,71.2Z" transform="translate(0)"/></g></g><text class="k" transform="translate(187 131)"><tspan x="-39.015" y="15">37:20</tspan></text><text class="j" transform="translate(0 170)"><tspan x="0" y="15">Filset label aliquam eu metus at </tspan><tspan x="0" y="37">arcu c.1967 sagittis </tspan></text></g></g></g><rect class="l" width="58" height="290" transform="translate(1204 665)"/><rect class="d" width="541" height="892" transform="translate(1232 104)"/><rect class="m" width="620" height="88" transform="translate(1232 250)"/><rect class="h" width="132" height="47" transform="translate(1262 104)"/><g class="n" transform="translate(1414 104)"><rect class="ac" width="132" height="47"/><rect class="a" x="1" y="1" width="130" height="45"/></g><rect class="o" width="251" height="161" transform="translate(68 737)"/><text class="j" transform="translate(136 808)"><tspan x="-52.536" y="15">NOW PLAYING</tspan></text><g transform="translate(-76 31)"><path class="c" d="M0,0H1163.837V603H0Z" transform="translate(144 73)"/><circle class="g" cx="50" cy="50" r="50" transform="translate(714 325)"/><path class="c" d="M22.336,2.5a2,2,0,0,1,3.328,0L45.927,32.891A2,2,0,0,1,44.263,36H3.737a2,2,0,0,1-1.664-3.109Z" transform="translate(788 351) rotate(90)"/><rect class="h" width="1164" height="55" transform="translate(144 621)"/><rect class="h" width="55" height="55" transform="translate(144 621)"/><path class="p" d="M0,0H606.085" transform="translate(230.5 648.5)"/><g transform="translate(-49)"><line class="q" x2="148" transform="translate(1184.5 648.5)"/><circle class="r" cx="8.5" cy="8.5" r="8.5" transform="translate(1316 640)"/></g><circle class="r" cx="8.5" cy="8.5" r="8.5" transform="translate(222 640)"/><path class="r" d="M10.336,2.5a2,2,0,0,1,3.328,0l8.263,12.394A2,2,0,0,1,20.263,18H3.737a2,2,0,0,1-1.664-3.109Z" transform="translate(181 637) rotate(90)"/></g><text class="s" transform="translate(1287 135)"><tspan x="0" y="0">Tristique</tspan></text><text class="t" transform="translate(1262 171)"><tspan x="0" y="19">Morbi odio lectus, maximus vel bibendum eu.</tspan></text><text class="j" transform="translate(1403 171)"><tspan x="401.504" y="15">2:25</tspan></text><text class="t" transform="translate(1262 215)"><tspan x="0" y="19">Curabitur aliquet nulla vel suscipit placerat. </tspan></text><text class="t" transform="translate(1262 259)"><tspan x="0" y="19">Pellentesque in ullamcorper mi, sit amet </tspan><tspan x="0" y="43">maximus lorem. In ac consectetur sapien, vel </tspan><tspan x="0" y="67">tincidunt magna.</tspan></text><text class="t" transform="translate(1262 348)"><tspan x="0" y="19">Vivamus dignissim, purus ac faucibus </tspan><tspan x="0" y="43">elementum, risus elit tincidunt lorem.</tspan></text><text class="t" transform="translate(1262 412)"><tspan x="0" y="19">Integer rutrum gravida lectus sit amet rutrum. </tspan></text><text class="j" transform="translate(1403 215)"><tspan x="401.504" y="15">4:37</tspan></text><text class="j" transform="translate(1403 259)"><tspan x="401.504" y="15">5:02</tspan></text><text class="j" transform="translate(1403 348)"><tspan x="401.504" y="15">7:10</tspan></text><text class="j" transform="translate(1403 412)"><tspan x="392.384" y="15">10:49</tspan></text><text class="u" transform="translate(1287 135)"><tspan x="0" y="0">Tristique</tspan></text><text class="v" transform="translate(1439 135)"><tspan x="0" y="0">Praesent</tspan></text><text class="t" transform="translate(1262 457)"><tspan x="0" y="19">Pellentesque sagittis.</tspan></text><text class="t" transform="translate(1262 501)"><tspan x="0" y="19">Donec vitae enim ut metus maximus </tspan><tspan x="0" y="43">ullamcorper at mollis ex.</tspan></text><text class="t" transform="translate(1262 566)"><tspan x="0" y="19">Praesent maximus nibh et est pharetra, nec </tspan><tspan x="0" y="43">accumsan nunc ultrices. </tspan></text><text class="t" transform="translate(1262 631)"><tspan x="0" y="19">Sed tincidunt ligula sit amet facilisis.</tspan></text><text class="t" transform="translate(1262 675)"><tspan x="0" y="19">Nulla non mauris sit amet neque lobortis </tspan><tspan x="0" y="43">ultrices.</tspan></text><text class="t" transform="translate(1262 739)"><tspan x="0" y="19">Sed non turpis ut lorem bibendum commodo </tspan><tspan x="0" y="43">eu et tellus. Fusce cursus felis eget massa </tspan><tspan x="0" y="67">cursus, non maximus.</tspan></text><text class="t" transform="translate(1262 828)"><tspan x="0" y="19" xml:space="preserve">Nullam  facilisis at faucibus et interdum </tspan><tspan x="0" y="43">cursus ligula et gravida.</tspan></text><text class="t" transform="translate(1262 894)"><tspan x="0" y="19">Integer dapibus, felis sed placerat luctus, mi </tspan><tspan x="0" y="43">erat aliquam quam, at rhoncus leo augue et </tspan><tspan x="0" y="67">justo. </tspan></text><text class="j" transform="translate(1403 457)"><tspan x="392.384" y="15">12:13</tspan></text><text class="j" transform="translate(1403 501)"><tspan x="392.384" y="15">15:00</tspan></text><text class="j" transform="translate(1403 566)"><tspan x="392.384" y="15">18:34</tspan></text><text class="j" transform="translate(1403 631)"><tspan x="392.384" y="15">23:45</tspan></text><text class="j" transform="translate(1403 675)"><tspan x="392.384" y="15">25:19</tspan></text><text class="j" transform="translate(1403 739)"><tspan x="392.384" y="15">28:55</tspan></text><text class="j" transform="translate(1403 824)"><tspan x="392.384" y="15">32:08</tspan></text><text class="j" transform="translate(1403 890)"><tspan x="392.384" y="15">34:57</tspan></text><rect class="l" width="139" height="620" transform="translate(1852 828) rotate(90)"/><text class="w" transform="translate(832 1063)"><tspan x="0" y="0">Auilaquam functum</tspan></text><g class="x" transform="translate(293 1096)"><g transform="translate(-293 -1096)"><g transform="translate(293 1096)"><g transform="translate(-95 -956)"><rect class="g" width="246.727" height="160" transform="translate(95 956)"/><g transform="translate(95 956)"><path class="h" d="M247,160H0V0H247V160ZM110.033,71.2a1.974,1.974,0,0,0-1.834,1.2L97.385,97.225a2,2,0,0,0,1.833,2.8h48.568a2,2,0,0,0,1.835-2.8L135.41,64.458a2,2,0,0,0-3.67,0L120.1,91.3,111.866,72.4A1.974,1.974,0,0,0,110.033,71.2Z" transform="translate(0)"/></g></g><text class="i" transform="translate(0 170)"><tspan x="0" y="15">Filset label aliquam eu metus at </tspan><tspan x="0" y="37">arcu c.1967 sagittis </tspan></text></g></g><g transform="translate(-25 -1096)"><g transform="translate(293 1096)"><g transform="translate(-95 -956)"><rect class="g" width="246.727" height="160" transform="translate(95 956)"/><g transform="translate(95 956)"><path class="h" d="M247,160H0V0H247V160ZM110.033,71.2a1.974,1.974,0,0,0-1.834,1.2L97.385,97.225a2,2,0,0,0,1.833,2.8h48.568a2,2,0,0,0,1.835-2.8L135.41,64.458a2,2,0,0,0-3.67,0L120.1,91.3,111.866,72.4A1.974,1.974,0,0,0,110.033,71.2Z" transform="translate(0)"/></g></g><text class="i" transform="translate(0 170)"><tspan x="0" y="15">Filset label aliquam eu metus at </tspan><tspan x="0" y="37">arcu c.1967 sagittis </tspan></text></g></g><g transform="translate(243 -1096)"><g transform="translate(293 1096)"><g transform="translate(-95 -956)"><rect class="g" width="246.727" height="160" transform="translate(95 956)"/><g transform="translate(95 956)"><path class="h" d="M247,160H0V0H247V160ZM110.033,71.2a1.974,1.974,0,0,0-1.834,1.2L97.385,97.225a2,2,0,0,0,1.833,2.8h48.568a2,2,0,0,0,1.835-2.8L135.41,64.458a2,2,0,0,0-3.67,0L120.1,91.3,111.866,72.4A1.974,1.974,0,0,0,110.033,71.2Z" transform="translate(0)"/></g></g><text class="i" transform="translate(0 170)"><tspan x="0" y="15">Filset label aliquam eu metus at </tspan><tspan x="0" y="37">arcu c.1967 sagittis </tspan></text></g></g><g transform="translate(511 -1096)"><g transform="translate(293 1096)"><g transform="translate(-95 -956)"><rect class="g" width="246.727" height="160" transform="translate(95 956)"/><g transform="translate(95 956)"><path class="h" d="M247,160H0V0H247V160ZM110.033,71.2a1.974,1.974,0,0,0-1.834,1.2L97.385,97.225a2,2,0,0,0,1.833,2.8h48.568a2,2,0,0,0,1.835-2.8L135.41,64.458a2,2,0,0,0-3.67,0L120.1,91.3,111.866,72.4A1.974,1.974,0,0,0,110.033,71.2Z" transform="translate(0)"/></g></g><text class="i" transform="translate(0 170)"><tspan x="0" y="15">Filset label aliquam eu metus at </tspan><tspan x="0" y="37">arcu c.1967 sagittis </tspan></text></g></g><g transform="translate(779 -1096)"><g transform="translate(293 1096)"><g transform="translate(-95 -956)"><rect class="g" width="246.727" height="160" transform="translate(95 956)"/><g transform="translate(95 956)"><path class="h" d="M247,160H0V0H247V160ZM110.033,71.2a1.974,1.974,0,0,0-1.834,1.2L97.385,97.225a2,2,0,0,0,1.833,2.8h48.568a2,2,0,0,0,1.835-2.8L135.41,64.458a2,2,0,0,0-3.67,0L120.1,91.3,111.866,72.4A1.974,1.974,0,0,0,110.033,71.2Z" transform="translate(0)"/></g></g><text class="i" transform="translate(0 170)"><tspan x="0" y="15">Filset label aliquam eu metus at </tspan><tspan x="0" y="37">arcu c.1967 sagittis </tspan></text></g></g></g></g><path class="y" d="M9054.881,847.984" transform="translate(-8709 -12)"/><path class="q" d="M8908.757,746.961h-30V916.291h30" transform="translate(-8627 286)"/><path class="q" d="M8908.757,746.961h-30V976.353h30" transform="translate(-8627 575)"/><path class="q" d="M8908.757,746.961h-30v559.532h30" transform="translate(-8627 -343.203)"/><path class="q" d="M8908.757,746.961h-30v754.532h30" transform="translate(11143.571 1949.252) rotate(180)"/><path class="q" d="M8908.757,746.961h-30V1291.7h30" transform="translate(2872.249 -8650.732) rotate(90)"/><line class="q" x1="1106" transform="translate(369.5 309.5)"/><line class="q" x1="558" transform="translate(1540.5 309.5)"/><line class="q" y2="11" transform="translate(369.5 304.5)"/><g class="z" transform="translate(301 273)"><rect class="ac" width="1920" height="1384"/><rect class="a" x="0.5" y="0.5" width="1919" height="1383"/></g><text class="aa" transform="translate(2040 299)"><tspan x="-46.768" y="15">38.2%</tspan></text><text class="aa" transform="translate(1420 299)"><tspan x="-46.768" y="15">61.8%</tspan></text><text class="ab" transform="translate(80 672)"><tspan x="-132.6" y="20">HTML 5 Video</tspan></text><text class="ab" transform="translate(80 1093)"><tspan x="-53.32" y="20">Video</tspan><tspan x="-79.26" y="45">Streams</tspan></text><text class="ab" transform="translate(1784 189)"><tspan x="-50.92" y="20">Navigation</tspan></text><text class="ab" transform="translate(2284 812)"><tspan x="0" y="20">Navigation</tspan><tspan x="0" y="45">Tracks</tspan></text><text class="ab" transform="translate(80 1425)"><tspan x="-81.42" y="20">Auxiliary </tspan><tspan x="-69.94" y="45">Images</tspan></text></g></svg>