<svg xmlns="http://www.w3.org/2000/svg" xmlns:xlink="http://www.w3.org/1999/xlink" width="2522" height="2183" viewBox="0 0 2522 2183"><defs><style>.a,.l,.u,.w{fill:none;}.b{clip-path:url(#e);}.c,.g,.h,.k,.o,.q{fill:#2699fb;}.c{font-size:28px;}.c,.g,.h,.i,.n,.q{font-family:AkkuratPro-Bold, Akkurat Pro;}.c,.g,.h,.i,.n,.q,.z{font-weight:700;}.d{clip-path:url(#a);}.e,.t,.x{fill:#bce0fd;}.f{fill:#f1f9ff;}.g,.i,.x{font-size:16px;}.h{font-size:15px;}.i,.j,.n,.p,.s{fill:#fff;}.l,.t{stroke:#bce0fd;}.l{stroke-width:2px;}.m{fill:rgba(38,153,251,0.75);}.n,.o,.p,.q,.z{font-size:20px;}.o,.p,.x{font-family:AkkuratPro-Regular, Akkurat Pro;}.r{clip-path:url(#b);}.u{stroke:#7fc4fd;}.v{fill:#7fc4fd;}.w{stroke:#707070;}.y{fill:url(#c);}.z{fill:#076cc3;font-family:HelveticaNeue-Bold, Helvetica Neue;}.aa,.ab{stroke:none;}.ab{fill:#bce0fd;}</style><clipPath id="a"><rect class="a" width="1608" height="211"/></clipPath><clipPath id="b"><rect class="a" width="1327" height="211"/></clipPath><linearGradient id="c" y1="0.572" x2="1" y2="0.572" gradientUnits="objectBoundingBox"><stop offset="0" stop-color="#fff" stop-opacity="0"/><stop offset="1" stop-color="#fff"/></linearGradient><clipPath id="e"><rect width="2522" height="2183"/></clipPath></defs><g id="d" class="b"><rect class="j" width="2522" height="2183"/><g transform="translate(369 323)"><text class="c" transform="translate(0 27)"><tspan x="0" y="0">Aliquam eu metus at arcu c.1967 sagittis mollis ut ac</tspan></text><g class="d" transform="translate(0 687)"><g transform="translate(-95 -745)"><g transform="translate(95 745)"><g transform="translate(-95 -956)"><rect class="e" width="246.727" height="160" transform="translate(95 956)"/><g transform="translate(95 956)"><path class="f" d="M247,160H0V0H247V160ZM110.033,71.2a1.974,1.974,0,0,0-1.834,1.2L97.385,97.225a2,2,0,0,0,1.833,2.8h48.568a2,2,0,0,0,1.835-2.8L135.41,64.458a2,2,0,0,0-3.67,0L120.1,91.3,111.866,72.4A1.974,1.974,0,0,0,110.033,71.2Z" transform="translate(0)"/></g></g><text class="g" transform="translate(237 146)"><tspan x="-41.616" y="0">37:20</tspan></text><text class="g" transform="translate(0 170)"><tspan x="0" y="15">Filset label aliquam eu metus at </tspan><tspan x="0" y="37">arcu c.1967 sagittis </tspan></text></g></g><g transform="translate(173 -745)"><g transform="translate(95 745)"><g transform="translate(-95 -956)"><rect class="e" width="246.727" height="160" transform="translate(95 956)"/><g transform="translate(95 956)"><path class="f" d="M247,160H0V0H247V160ZM110.033,71.2a1.974,1.974,0,0,0-1.834,1.2L97.385,97.225a2,2,0,0,0,1.833,2.8h48.568a2,2,0,0,0,1.835-2.8L135.41,64.458a2,2,0,0,0-3.67,0L120.1,91.3,111.866,72.4A1.974,1.974,0,0,0,110.033,71.2Z" transform="translate(0)"/></g></g><text class="h" transform="translate(237 146)"><tspan x="-39.015" y="0">37:20</tspan></text><text class="g" transform="translate(0 170)"><tspan x="0" y="15">Filset label aliquam eu metus at </tspan><tspan x="0" y="37">arcu c.1967 sagittis </tspan></text></g></g><g transform="translate(441 -745)"><g transform="translate(95 745)"><g transform="translate(-95 -956)"><rect class="e" width="246.727" height="160" transform="translate(95 956)"/><g transform="translate(95 956)"><path class="f" d="M247,160H0V0H247V160ZM110.033,71.2a1.974,1.974,0,0,0-1.834,1.2L97.385,97.225a2,2,0,0,0,1.833,2.8h48.568a2,2,0,0,0,1.835-2.8L135.41,64.458a2,2,0,0,0-3.67,0L120.1,91.3,111.866,72.4A1.974,1.974,0,0,0,110.033,71.2Z" transform="translate(0)"/></g></g><text class="h" transform="translate(237 146)"><tspan x="-39.015" y="0">37:20</tspan></text><text class="g" transform="translate(0 170)"><tspan x="0" y="15">Filset label aliquam eu metus at </tspan><tspan x="0" y="37">arcu c.1967 sagittis </tspan></text></g></g><g transform="translate(709 -745)"><g transform="translate(95 745)"><g transform="translate(-95 -956)"><rect class="e" width="246.727" height="160" transform="translate(95 956)"/><g transform="translate(95 956)"><path class="f" d="M247,160H0V0H247V160ZM110.033,71.2a1.974,1.974,0,0,0-1.834,1.2L97.385,97.225a2,2,0,0,0,1.833,2.8h48.568a2,2,0,0,0,1.835-2.8L135.41,64.458a2,2,0,0,0-3.67,0L120.1,91.3,111.866,72.4A1.974,1.974,0,0,0,110.033,71.2Z" transform="translate(0)"/></g></g><text class="h" transform="translate(237 146)"><tspan x="-39.015" y="0">37:20</tspan></text><text class="g" transform="translate(0 170)"><tspan x="0" y="15">Filset label aliquam eu metus at </tspan><tspan x="0" y="37">arcu c.1967 sagittis </tspan></text></g></g><g transform="translate(977 -745)"><g transform="translate(95 745)"><g transform="translate(-95 -956)"><rect class="e" width="246.727" height="160" transform="translate(95 956)"/><g transform="translate(95 956)"><path class="f" d="M247,160H0V0H247V160ZM110.033,71.2a1.974,1.974,0,0,0-1.834,1.2L97.385,97.225a2,2,0,0,0,1.833,2.8h48.568a2,2,0,0,0,1.835-2.8L135.41,64.458a2,2,0,0,0-3.67,0L120.1,91.3,111.866,72.4A1.974,1.974,0,0,0,110.033,71.2Z" transform="translate(0)"/></g></g><text class="h" transform="translate(187 131)"><tspan x="-39.015" y="15">37:20</tspan></text><text class="g" transform="translate(0 170)"><tspan x="0" y="15">Filset label aliquam eu metus at </tspan><tspan x="0" y="37">arcu c.1967 sagittis </tspan></text></g></g><g transform="translate(1245 -745)"><g transform="translate(95 745)"><g transform="translate(-95 -956)"><rect class="e" width="246.727" height="160" transform="translate(95 956)"/><g transform="translate(95 956)"><path class="f" d="M247,160H0V0H247V160ZM110.033,71.2a1.974,1.974,0,0,0-1.834,1.2L97.385,97.225a2,2,0,0,0,1.833,2.8h48.568a2,2,0,0,0,1.835-2.8L135.41,64.458a2,2,0,0,0-3.67,0L120.1,91.3,111.866,72.4A1.974,1.974,0,0,0,110.033,71.2Z" transform="translate(0)"/></g></g><text class="h" transform="translate(187 131)"><tspan x="-39.015" y="15">37:20</tspan></text><text class="i" transform="translate(0 170)"><tspan x="0" y="15">Filset label aliquam eu metus at </tspan><tspan x="0" y="37">arcu c.1967 sagittis </tspan></text></g></g></g><rect class="j" width="541" height="892" transform="translate(1164 53)"/><rect class="k" width="620" height="88" transform="translate(1164 200)"/><rect class="f" width="132" height="47" transform="translate(1194 54)"/><g class="l" transform="translate(1346 54)"><rect class="aa" width="132" height="47"/><rect class="a" x="1" y="1" width="130" height="45"/></g><rect class="m" width="251" height="161" transform="translate(0 687)"/><text class="i" transform="translate(123.5 773)"><tspan x="-52.536" y="0">NOW PLAYING</tspan></text><text class="n" transform="translate(1219 85)"><tspan x="0" y="0">Tristique</tspan></text><text class="o" transform="translate(1194 121)"><tspan x="0" y="19">Morbi odio lectus, maximus vel bibendum eu.</tspan></text><text class="g" transform="translate(1335 121)"><tspan x="401.504" y="15">2:25</tspan></text><text class="o" transform="translate(1194 165)"><tspan x="0" y="19">Curabitur aliquet nulla vel suscipit placerat. </tspan></text><text class="p" transform="translate(1194 209)"><tspan x="0" y="19">Pellentesque in ullamcorper mi, sit amet </tspan><tspan x="0" y="43">maximus lorem. In ac consectetur sapien, vel </tspan><tspan x="0" y="67">tincidunt magna.</tspan></text><text class="o" transform="translate(1194 298)"><tspan x="0" y="19">Vivamus dignissim, purus ac faucibus </tspan><tspan x="0" y="43">elementum, risus elit tincidunt lorem.</tspan></text><text class="o" transform="translate(1194 362)"><tspan x="0" y="19">Integer rutrum gravida lectus sit amet rutrum. </tspan></text><text class="g" transform="translate(1335 165)"><tspan x="401.504" y="15">4:37</tspan></text><text class="i" transform="translate(1335 209)"><tspan x="401.504" y="15">5:02</tspan></text><text class="g" transform="translate(1335 298)"><tspan x="401.504" y="15">7:10</tspan></text><text class="g" transform="translate(1335 362)"><tspan x="392.384" y="15">10:49</tspan></text><text class="q" transform="translate(1219 85)"><tspan x="0" y="0">Tristique</tspan></text><text class="q" transform="translate(1371 85)"><tspan x="0" y="0">Praesent</tspan></text><text class="o" transform="translate(1194 407)"><tspan x="0" y="19">Pellentesque sagittis.</tspan></text><text class="o" transform="translate(1194 451)"><tspan x="0" y="19">Donec vitae enim ut metus maximus </tspan><tspan x="0" y="43">ullamcorper at mollis ex.</tspan></text><text class="o" transform="translate(1194 516)"><tspan x="0" y="19">Praesent maximus nibh et est pharetra, nec </tspan><tspan x="0" y="43">accumsan nunc ultrices. </tspan></text><text class="o" transform="translate(1194 581)"><tspan x="0" y="19">Sed tincidunt ligula sit amet facilisis.</tspan></text><text class="o" transform="translate(1194 625)"><tspan x="0" y="19">Nulla non mauris sit amet neque lobortis </tspan><tspan x="0" y="43">ultrices.</tspan></text><text class="o" transform="translate(1194 689)"><tspan x="0" y="19">Sed non turpis ut lorem bibendum commodo </tspan><tspan x="0" y="43">eu et tellus. Fusce cursus felis eget massa </tspan><tspan x="0" y="67">cursus, non maximus.</tspan></text><text class="o" transform="translate(1194 778)"><tspan x="0" y="19" xml:space="preserve">Nullam  facilisis at faucibus et interdum </tspan><tspan x="0" y="43">cursus ligula et gravida.</tspan></text><text class="o" transform="translate(1194 844)"><tspan x="0" y="19">Integer dapibus, felis sed placerat luctus, mi </tspan><tspan x="0" y="43">erat aliquam quam, at rhoncus leo augue et </tspan><tspan x="0" y="67">justo. </tspan></text><text class="g" transform="translate(1335 407)"><tspan x="392.384" y="15">12:13</tspan></text><text class="g" transform="translate(1335 451)"><tspan x="392.384" y="15">15:00</tspan></text><text class="g" transform="translate(1335 516)"><tspan x="392.384" y="15">18:34</tspan></text><text class="g" transform="translate(1335 581)"><tspan x="392.384" y="15">23:45</tspan></text><text class="g" transform="translate(1335 625)"><tspan x="392.384" y="15">25:19</tspan></text><text class="g" transform="translate(1335 689)"><tspan x="392.384" y="15">28:55</tspan></text><text class="g" transform="translate(1335 774)"><tspan x="392.384" y="15">32:08</tspan></text><text class="g" transform="translate(1335 840)"><tspan x="392.384" y="15">34:57</tspan></text><text class="c" transform="translate(764 1043)"><tspan x="0" y="0">Auilaquam functum</tspan></text><g class="r" transform="translate(225 1076)"><g transform="translate(-293 -1096)"><g transform="translate(293 1096)"><g transform="translate(-95 -956)"><rect class="e" width="246.727" height="160" transform="translate(95 956)"/><g transform="translate(95 956)"><path class="f" d="M247,160H0V0H247V160ZM110.033,71.2a1.974,1.974,0,0,0-1.834,1.2L97.385,97.225a2,2,0,0,0,1.833,2.8h48.568a2,2,0,0,0,1.835-2.8L135.41,64.458a2,2,0,0,0-3.67,0L120.1,91.3,111.866,72.4A1.974,1.974,0,0,0,110.033,71.2Z" transform="translate(0)"/></g></g><text class="g" transform="translate(0 170)"><tspan x="0" y="15">Filset label aliquam eu metus at </tspan><tspan x="0" y="37">arcu c.1967 sagittis </tspan></text></g></g><g transform="translate(-25 -1096)"><g transform="translate(293 1096)"><g transform="translate(-95 -956)"><rect class="e" width="246.727" height="160" transform="translate(95 956)"/><g transform="translate(95 956)"><path class="f" d="M247,160H0V0H247V160ZM110.033,71.2a1.974,1.974,0,0,0-1.834,1.2L97.385,97.225a2,2,0,0,0,1.833,2.8h48.568a2,2,0,0,0,1.835-2.8L135.41,64.458a2,2,0,0,0-3.67,0L120.1,91.3,111.866,72.4A1.974,1.974,0,0,0,110.033,71.2Z" transform="translate(0)"/></g></g><text class="g" transform="translate(0 170)"><tspan x="0" y="15">Filset label aliquam eu metus at </tspan><tspan x="0" y="37">arcu c.1967 sagittis </tspan></text></g></g><g transform="translate(243 -1096)"><g transform="translate(293 1096)"><g transform="translate(-95 -956)"><rect class="e" width="246.727" height="160" transform="translate(95 956)"/><g transform="translate(95 956)"><path class="f" d="M247,160H0V0H247V160ZM110.033,71.2a1.974,1.974,0,0,0-1.834,1.2L97.385,97.225a2,2,0,0,0,1.833,2.8h48.568a2,2,0,0,0,1.835-2.8L135.41,64.458a2,2,0,0,0-3.67,0L120.1,91.3,111.866,72.4A1.974,1.974,0,0,0,110.033,71.2Z" transform="translate(0)"/></g></g><text class="g" transform="translate(0 170)"><tspan x="0" y="15">Filset label aliquam eu metus at </tspan><tspan x="0" y="37">arcu c.1967 sagittis </tspan></text></g></g><g transform="translate(511 -1096)"><g transform="translate(293 1096)"><g transform="translate(-95 -956)"><rect class="e" width="246.727" height="160" transform="translate(95 956)"/><g transform="translate(95 956)"><path class="f" d="M247,160H0V0H247V160ZM110.033,71.2a1.974,1.974,0,0,0-1.834,1.2L97.385,97.225a2,2,0,0,0,1.833,2.8h48.568a2,2,0,0,0,1.835-2.8L135.41,64.458a2,2,0,0,0-3.67,0L120.1,91.3,111.866,72.4A1.974,1.974,0,0,0,110.033,71.2Z" transform="translate(0)"/></g></g><text class="g" transform="translate(0 170)"><tspan x="0" y="15">Filset label aliquam eu metus at </tspan><tspan x="0" y="37">arcu c.1967 sagittis </tspan></text></g></g><g transform="translate(779 -1096)"><g transform="translate(293 1096)"><g transform="translate(-95 -956)"><rect class="e" width="246.727" height="160" transform="translate(95 956)"/><g transform="translate(95 956)"><path class="f" d="M247,160H0V0H247V160ZM110.033,71.2a1.974,1.974,0,0,0-1.834,1.2L97.385,97.225a2,2,0,0,0,1.833,2.8h48.568a2,2,0,0,0,1.835-2.8L135.41,64.458a2,2,0,0,0-3.67,0L120.1,91.3,111.866,72.4A1.974,1.974,0,0,0,110.033,71.2Z" transform="translate(0)"/></g></g><text class="g" transform="translate(0 170)"><tspan x="0" y="15">Filset label aliquam eu metus at </tspan><tspan x="0" y="37">arcu c.1967 sagittis </tspan></text></g></g></g><g transform="translate(-144 -19)"><g class="s" transform="translate(144 73)"><path class="aa" d="M 1163.33740234375 602.5 L 0.4999868869781494 602.5 L 0.4999868869781494 0.5 L 1163.33740234375 0.5 L 1163.33740234375 602.5 Z"/><path class="ab" d="M 1 1 L 1 602 L 1162.83740234375 602 L 1162.83740234375 1 L 1 1 M 0 0 L 1163.83740234375 0 L 1163.83740234375 603 L 0 603 L 0 0 Z"/></g><circle class="e" cx="50" cy="50" r="50" transform="translate(714 325)"/><path class="j" d="M22.336,2.5a2,2,0,0,1,3.328,0L45.927,32.891A2,2,0,0,1,44.263,36H3.737a2,2,0,0,1-1.664-3.109Z" transform="translate(788 351) rotate(90)"/><rect class="f" width="1164" height="55" transform="translate(144 621)"/><rect class="f" width="55" height="55" transform="translate(144 621)"/><path class="t" d="M0,0H606.085" transform="translate(230.5 648.5)"/><g transform="translate(-49)"><line class="u" x2="148" transform="translate(1184.5 648.5)"/><circle class="v" cx="8.5" cy="8.5" r="8.5" transform="translate(1316 640)"/></g><circle class="v" cx="8.5" cy="8.5" r="8.5" transform="translate(222 640)"/><path class="v" d="M10.336,2.5a2,2,0,0,1,3.328,0l8.263,12.394A2,2,0,0,1,20.263,18H3.737a2,2,0,0,1-1.664-3.109Z" transform="translate(181 637) rotate(90)"/></g></g><path class="w" d="M9054.881,847.984" transform="translate(-8709 -12)"/><path class="u" d="M8908.757,746.961h-30V916.291h30" transform="translate(-8627 286)"/><path class="u" d="M8908.757,746.961h-30V976.353h30" transform="translate(-8627 575)"/><path class="u" d="M8908.757,746.961h-30v559.532h30" transform="translate(-8627 -343.203)"/><path class="u" d="M8908.757,746.961h-30v754.532h30" transform="translate(11143.571 1949.252) rotate(180)"/><path class="u" d="M8908.757,746.961h-30V1291.7h30" transform="translate(2872.249 -8650.732) rotate(90)"/><line class="u" x1="1106" transform="translate(369.5 309.5)"/><line class="u" x1="558" transform="translate(1540.5 309.5)"/><line class="u" y2="11" transform="translate(369.5 304.5)"/><text class="x" transform="translate(2153 314)"><tspan x="-46.768" y="0">38.2%</tspan></text><text class="x" transform="translate(1533 314)"><tspan x="-46.768" y="0">61.8%</tspan></text><rect class="y" width="64" height="620" transform="translate(2153 1176) rotate(90)"/><text class="z" transform="translate(217 692)"><tspan x="-132.6" y="0">HTML 5 Video</tspan></text><text class="z" transform="translate(217 1113)"><tspan x="-53.32" y="0">Video</tspan><tspan x="-79.26" y="25">Streams</tspan></text><text class="z" transform="translate(1852.5 209)"><tspan x="-50.92" y="0">Navigation</tspan></text><text class="z" transform="translate(2284 832)"><tspan x="0" y="0">Navigation</tspan><tspan x="0" y="25">Tracks</tspan></text><text class="z" transform="translate(217 1445)"><tspan x="-86.98" y="0">Auxiliary </tspan><tspan x="-69.94" y="25">Images</tspan></text></g></svg>