<svg xmlns="http://www.w3.org/2000/svg" xmlns:xlink="http://www.w3.org/1999/xlink" width="1920" height="775" viewBox="0 0 1920 775"><defs><style>.a{clip-path:url(#c);}.b,.m{fill:#2699fb;}.c,.d,.j,.l{fill:#fff;}.c{font-size:28px;}.c,.l,.m{font-family:AkkuratPro-Bold, Akkurat Pro;font-weight:700;}.e,.g,.o{fill:#bce0fd;}.f,.h,.i,.q,.t{fill:none;}.f,.i{stroke:#7fc4fd;}.g,.l{font-size:16px;}.g,.j{font-family:AkkuratPro-Regular, Akkurat Pro;}.h{stroke:#f1f9ff;}.i{stroke-width:2px;}.j,.m{font-size:20px;}.k{fill:#076cc3;}.n{fill:#f1f9ff;}.o{stroke:#bce0fd;}.p{fill:#7fc4fd;}.q{stroke:#707070;}.r{fill:url(#a);}.s{stroke:none;}</style><linearGradient id="a" y1="0.572" x2="1" y2="0.572" gradientUnits="objectBoundingBox"><stop offset="0" stop-color="#2699fb" stop-opacity="0"/><stop offset="1" stop-color="#2699fb"/></linearGradient><clipPath id="c"><rect width="1920" height="775"/></clipPath></defs><g id="b" class="a"><rect class="d" width="1920" height="775"/><g transform="translate(-301 -273)"><path class="b" d="M0,0H1920V775H0Z" transform="translate(301 273)"/><text class="c" transform="translate(369 350)"><tspan x="0" y="0">Aliquam eu metus at arcu c.1967 sagittis mollis ut ac</tspan></text><path class="d" d="M0,0H1163.837V603H0Z" transform="translate(369 377)"/><circle class="e" cx="50" cy="50" r="50" transform="translate(939 629)"/><path class="d" d="M22.336,2.5a2,2,0,0,1,3.328,0L45.927,32.891A2,2,0,0,1,44.263,36H3.737a2,2,0,0,1-1.664-3.109Z" transform="translate(1013 655) rotate(90)"/><line class="f" x1="1106" transform="translate(369.5 309.5)"/><line class="f" x1="558" transform="translate(1540.5 309.5)"/><line class="f" y2="11" transform="translate(369.5 304.5)"/><text class="g" transform="translate(1420 299)"><tspan x="-46.768" y="15">61.8%</tspan></text><g class="h" transform="translate(1573 377)"><rect class="s" width="132" height="47"/><rect class="t" x="0.5" y="0.5" width="131" height="46"/></g><rect class="d" width="132" height="47" transform="translate(1725 377)"/><g class="i" transform="translate(1877 377)"><rect class="s" width="132" height="47"/><rect class="t" x="1" y="1" width="130" height="45"/></g><text class="j" transform="translate(1601 408)"><tspan x="0" y="0">Vimarcu</tspan></text><text class="j" transform="translate(1902 408)"><tspan x="0" y="0">Praesent</tspan></text><rect class="k" width="620" height="88" transform="translate(1533 553)"/><text class="j" transform="translate(1571 474)"><tspan x="0" y="19">Morbi odio lectus, maximus vel bibendum eu.</tspan></text><text class="l" transform="translate(1712 474)"><tspan x="401.504" y="15">2:25</tspan></text><text class="j" transform="translate(1571 518)"><tspan x="0" y="19">Curabitur aliquet nulla vel suscipit placerat. </tspan></text><text class="j" transform="translate(1571 562)"><tspan x="0" y="19">Pellentesque in ullamcorper mi, sit amet </tspan><tspan x="0" y="43">maximus lorem. In ac consectetur sapien, vel </tspan><tspan x="0" y="67">tincidunt magna.</tspan></text><text class="j" transform="translate(1571 651)"><tspan x="0" y="19">Vivamus dignissim, purus ac faucibus </tspan><tspan x="0" y="43">elementum, risus elit tincidunt lorem.</tspan></text><text class="j" transform="translate(1571 715)"><tspan x="0" y="19">Integer rutrum gravida lectus sit amet rutrum. </tspan></text><text class="l" transform="translate(1712 518)"><tspan x="401.504" y="15">4:37</tspan></text><text class="l" transform="translate(1712 562)"><tspan x="401.504" y="15">5:02</tspan></text><text class="l" transform="translate(1712 651)"><tspan x="401.504" y="15">7:10</tspan></text><text class="l" transform="translate(1712 715)"><tspan x="392.384" y="15">10:49</tspan></text><text class="j" transform="translate(1571 760)"><tspan x="0" y="19">Pellentesque sagittis.</tspan></text><text class="l" transform="translate(1712 760)"><tspan x="392.384" y="15">12:13</tspan></text><text class="m" transform="translate(1747 408)"><tspan x="0" y="0">Tristique</tspan></text><text class="g" transform="translate(2040 299)"><tspan x="-46.768" y="15">38.2%</tspan></text><rect class="n" width="1164" height="55" transform="translate(369 925)"/><rect class="n" width="55" height="55" transform="translate(369 925)"/><path class="o" d="M0,0H606.085" transform="translate(455.5 952.5)"/><line class="f" x2="148" transform="translate(1360.5 952.5)"/><circle class="p" cx="8.5" cy="8.5" r="8.5" transform="translate(1492 944)"/><circle class="p" cx="8.5" cy="8.5" r="8.5" transform="translate(447 944)"/><path class="p" d="M10.336,2.5a2,2,0,0,1,3.328,0l8.263,12.394A2,2,0,0,1,20.263,18H3.737a2,2,0,0,1-1.664-3.109Z" transform="translate(406 941) rotate(90)"/><path class="q" d="M9054.881,847.984" transform="translate(-8709 -12)"/><text class="j" transform="translate(1571 804)"><tspan x="0" y="19">Donec vitae enim ut metus maximus </tspan><tspan x="0" y="43">ullamcorper at mollis ex.</tspan></text><text class="j" transform="translate(1571 869)"><tspan x="0" y="19">Praesent maximus nibh et est pharetra, nec </tspan><tspan x="0" y="43">accumsan nunc ultrices. </tspan></text><text class="j" transform="translate(1571 934)"><tspan x="0" y="19">Sed tincidunt ligula sit amet facilisis.</tspan></text><text class="l" transform="translate(1712 804)"><tspan x="392.384" y="15">15:00</tspan></text><text class="l" transform="translate(1712 869)"><tspan x="392.384" y="15">18:34</tspan></text><text class="l" transform="translate(1712 934)"><tspan x="392.384" y="15">23:45</tspan></text><rect class="r" width="139" height="620" transform="translate(2187 848) rotate(90)"/></g></g></svg>