<svg xmlns="http://www.w3.org/2000/svg" xmlns:xlink="http://www.w3.org/1999/xlink" width="1920" height="2217" viewBox="0 0 1920 2217"><defs><style>.a,.l,.u,.x{fill:none;}.b{clip-path:url(#f);}.ab,.c{fill:#f1f9ff;}.aa,.d,.e,.n,.q,.z{fill:#fff;}.f,.g,.h,.i,.k,.m,.p,.r{fill:#2699fb;}.aa,.ab,.g,.k,.m,.z{font-size:20px;}.g{font-family:Campton-ExtraBold, Campton;font-weight:800;}.h{font-size:54px;font-family:Campton-Bold, Campton;}.h,.i,.m,.n,.p,.q,.r,.z{font-weight:700;}.i,.n{font-size:28px;}.i,.m,.n,.p,.q,.r,.z{font-family:AkkuratPro-Bold, Akkurat Pro;}.j,.w{fill:#bce0fd;}.aa,.ab,.k{font-family:AkkuratPro-Regular, Akkurat Pro;}.l,.w{stroke:#bce0fd;}.o{clip-path:url(#a);}.p,.q{font-size:16px;}.r{font-size:15px;}.s{fill:url(#b);}.t{fill:#076cc3;}.u,.x{stroke:#7fc4fd;}.u{stroke-width:2px;}.v{fill:rgba(38,153,251,0.75);}.y{fill:#7fc4fd;}.ac{clip-path:url(#d);}.ad,.ae{stroke:none;}.ae{fill:#707070;}</style><clipPath id="a"><rect class="a" width="1608" height="211"/></clipPath><linearGradient id="b" y1="0.572" x2="1" y2="0.572" gradientUnits="objectBoundingBox"><stop offset="0" stop-color="#2699fb" stop-opacity="0"/><stop offset="1" stop-color="#2699fb"/></linearGradient><clipPath id="d"><rect class="a" width="1327" height="211"/></clipPath><clipPath id="f"><rect width="1920" height="2217"/></clipPath></defs><g id="e" class="b"><rect class="e" width="1920" height="2217"/><path class="c" d="M0,0H1920V273H0Z"/><g class="d" transform="translate(1246 118)"><path class="ad" d="M397,55h0Z"/><path class="ae" d="M 0 55 L 397 55 L 0 55 Z"/></g><rect class="e" width="1920" height="73" transform="translate(0 200)"/><path class="f" d="M0,0H1920V50H0Z"/><g transform="translate(0 1657)"><path class="c" d="M0,0H1920V558H0Z"/><text class="g" transform="translate(960 74)"><tspan x="-60.54" y="0">Item Details</tspan></text><text class="h" transform="translate(288 185)"><tspan x="0" y="0">Aliquam eu metus at arcu c.1967</tspan><tspan x="0" y="65">sagittis mollis ut ac</tspan></text><text class="i" transform="translate(1403 159)"><tspan x="0" y="0">Item Metadata</tspan></text><rect class="j" width="140" height="41" transform="translate(288 294)"/><rect class="j" width="140" height="41" transform="translate(448 294)"/><rect class="j" width="220" height="41" transform="translate(608 294)"/><text class="k" transform="translate(1403 242)"><tspan x="0" y="0">63e725d8-c5fa-4214-</tspan><tspan x="0" y="24">a68d-55e02d1a1dfa</tspan></text><rect class="j" width="41" height="41" transform="translate(1403 294)"/><rect class="j" width="41" height="41" transform="translate(1454 294)"/><rect class="j" width="41" height="41" transform="translate(1505 294)"/><path class="l" d="M0,0V226" transform="translate(1369.5 132.5)"/><rect class="j" width="121" height="78" transform="translate(1403 382)"/><text class="g" transform="translate(1464 428)"><tspan x="-14.86" y="0">IIIF</tspan></text><text class="m" transform="translate(1402 192)"><tspan x="0" y="19">Identifier</tspan></text></g><g transform="translate(0 273)"><rect class="e" width="1920" height="1384"/><path class="f" d="M0,0H1920V996H0Z"/><text class="n" transform="translate(68 77)"><tspan x="0" y="0">Aliquam eu metus at arcu c.1967 sagittis mollis ut ac</tspan></text><g class="o" transform="translate(68 737)"><g transform="translate(-95 -745)"><g transform="translate(95 745)"><g transform="translate(-95 -956)"><rect class="j" width="246.727" height="160" transform="translate(95 956)"/><g transform="translate(95 956)"><path class="c" d="M247,160H0V0H247V160ZM110.033,71.2a1.974,1.974,0,0,0-1.834,1.2L97.385,97.225a2,2,0,0,0,1.833,2.8h48.568a2,2,0,0,0,1.835-2.8L135.41,64.458a2,2,0,0,0-3.67,0L120.1,91.3,111.866,72.4A1.974,1.974,0,0,0,110.033,71.2Z" transform="translate(0)"/></g></g><text class="p" transform="translate(187 131)"><tspan x="-41.616" y="15">37:20</tspan></text><text class="q" transform="translate(0 170)"><tspan x="0" y="15">Filset label aliquam eu metus at </tspan><tspan x="0" y="37">arcu c.1967 sagittis </tspan></text></g></g><g transform="translate(173 -745)"><g transform="translate(95 745)"><g transform="translate(-95 -956)"><rect class="j" width="246.727" height="160" transform="translate(95 956)"/><g transform="translate(95 956)"><path class="c" d="M247,160H0V0H247V160ZM110.033,71.2a1.974,1.974,0,0,0-1.834,1.2L97.385,97.225a2,2,0,0,0,1.833,2.8h48.568a2,2,0,0,0,1.835-2.8L135.41,64.458a2,2,0,0,0-3.67,0L120.1,91.3,111.866,72.4A1.974,1.974,0,0,0,110.033,71.2Z" transform="translate(0)"/></g></g><text class="r" transform="translate(187 131)"><tspan x="-39.015" y="15">37:20</tspan></text><text class="q" transform="translate(0 170)"><tspan x="0" y="15">Filset label aliquam eu metus at </tspan><tspan x="0" y="37">arcu c.1967 sagittis </tspan></text></g></g><g transform="translate(441 -745)"><g transform="translate(95 745)"><g transform="translate(-95 -956)"><rect class="j" width="246.727" height="160" transform="translate(95 956)"/><g transform="translate(95 956)"><path class="c" d="M247,160H0V0H247V160ZM110.033,71.2a1.974,1.974,0,0,0-1.834,1.2L97.385,97.225a2,2,0,0,0,1.833,2.8h48.568a2,2,0,0,0,1.835-2.8L135.41,64.458a2,2,0,0,0-3.67,0L120.1,91.3,111.866,72.4A1.974,1.974,0,0,0,110.033,71.2Z" transform="translate(0)"/></g></g><text class="r" transform="translate(187 131)"><tspan x="-39.015" y="15">37:20</tspan></text><text class="q" transform="translate(0 170)"><tspan x="0" y="15">Filset label aliquam eu metus at </tspan><tspan x="0" y="37">arcu c.1967 sagittis </tspan></text></g></g><g transform="translate(709 -745)"><g transform="translate(95 745)"><g transform="translate(-95 -956)"><rect class="j" width="246.727" height="160" transform="translate(95 956)"/><g transform="translate(95 956)"><path class="c" d="M247,160H0V0H247V160ZM110.033,71.2a1.974,1.974,0,0,0-1.834,1.2L97.385,97.225a2,2,0,0,0,1.833,2.8h48.568a2,2,0,0,0,1.835-2.8L135.41,64.458a2,2,0,0,0-3.67,0L120.1,91.3,111.866,72.4A1.974,1.974,0,0,0,110.033,71.2Z" transform="translate(0)"/></g></g><text class="r" transform="translate(187 131)"><tspan x="-39.015" y="15">37:20</tspan></text><text class="q" transform="translate(0 170)"><tspan x="0" y="15">Filset label aliquam eu metus at </tspan><tspan x="0" y="37">arcu c.1967 sagittis </tspan></text></g></g><g transform="translate(977 -745)"><g transform="translate(95 745)"><g transform="translate(-95 -956)"><rect class="j" width="246.727" height="160" transform="translate(95 956)"/><g transform="translate(95 956)"><path class="c" d="M247,160H0V0H247V160ZM110.033,71.2a1.974,1.974,0,0,0-1.834,1.2L97.385,97.225a2,2,0,0,0,1.833,2.8h48.568a2,2,0,0,0,1.835-2.8L135.41,64.458a2,2,0,0,0-3.67,0L120.1,91.3,111.866,72.4A1.974,1.974,0,0,0,110.033,71.2Z" transform="translate(0)"/></g></g><text class="r" transform="translate(187 131)"><tspan x="-39.015" y="15">37:20</tspan></text><text class="q" transform="translate(0 170)"><tspan x="0" y="15">Filset label aliquam eu metus at </tspan><tspan x="0" y="37">arcu c.1967 sagittis </tspan></text></g></g><g transform="translate(1245 -745)"><g transform="translate(95 745)"><g transform="translate(-95 -956)"><rect class="j" width="246.727" height="160" transform="translate(95 956)"/><g transform="translate(95 956)"><path class="c" d="M247,160H0V0H247V160ZM110.033,71.2a1.974,1.974,0,0,0-1.834,1.2L97.385,97.225a2,2,0,0,0,1.833,2.8h48.568a2,2,0,0,0,1.835-2.8L135.41,64.458a2,2,0,0,0-3.67,0L120.1,91.3,111.866,72.4A1.974,1.974,0,0,0,110.033,71.2Z" transform="translate(0)"/></g></g><text class="r" transform="translate(187 131)"><tspan x="-39.015" y="15">37:20</tspan></text><text class="q" transform="translate(0 170)"><tspan x="0" y="15">Filset label aliquam eu metus at </tspan><tspan x="0" y="37">arcu c.1967 sagittis </tspan></text></g></g></g><rect class="s" width="36" height="290" transform="translate(1210 665)"/><rect class="f" width="541" height="892" transform="translate(1232 104)"/><rect class="t" width="620" height="88" transform="translate(1232 250)"/><rect class="c" width="132" height="47" transform="translate(1262 104)"/><g class="u" transform="translate(1414 104)"><rect class="ad" width="132" height="47"/><rect class="a" x="1" y="1" width="130" height="45"/></g><rect class="v" width="251" height="161" transform="translate(68 737)"/><text class="q" transform="translate(136 808)"><tspan x="-52.536" y="15">NOW PLAYING</tspan></text><g transform="translate(-76 31)"><path class="e" d="M0,0H1163.837V603H0Z" transform="translate(144 73)"/><circle class="j" cx="50" cy="50" r="50" transform="translate(714 325)"/><path class="e" d="M22.336,2.5a2,2,0,0,1,3.328,0L45.927,32.891A2,2,0,0,1,44.263,36H3.737a2,2,0,0,1-1.664-3.109Z" transform="translate(788 351) rotate(90)"/><rect class="c" width="1164" height="55" transform="translate(144 621)"/><rect class="c" width="55" height="55" transform="translate(144 621)"/><path class="w" d="M0,0H606.085" transform="translate(230.5 648.5)"/><g transform="translate(-49)"><line class="x" x2="148" transform="translate(1184.5 648.5)"/><circle class="y" cx="8.5" cy="8.5" r="8.5" transform="translate(1316 640)"/></g><circle class="y" cx="8.5" cy="8.5" r="8.5" transform="translate(222 640)"/><path class="y" d="M10.336,2.5a2,2,0,0,1,3.328,0l8.263,12.394A2,2,0,0,1,20.263,18H3.737a2,2,0,0,1-1.664-3.109Z" transform="translate(181 637) rotate(90)"/></g><text class="z" transform="translate(1287 135)"><tspan x="0" y="0">Tristique</tspan></text><text class="aa" transform="translate(1262 171)"><tspan x="0" y="19">Morbi odio lectus, maximus vel bibendum eu.</tspan></text><text class="q" transform="translate(1403 171)"><tspan x="401.504" y="15">2:25</tspan></text><text class="aa" transform="translate(1262 215)"><tspan x="0" y="19">Curabitur aliquet nulla vel suscipit placerat. </tspan></text><text class="aa" transform="translate(1262 259)"><tspan x="0" y="19">Pellentesque in ullamcorper mi, sit amet </tspan><tspan x="0" y="43">maximus lorem. In ac consectetur sapien, vel </tspan><tspan x="0" y="67">tincidunt magna.</tspan></text><text class="aa" transform="translate(1262 348)"><tspan x="0" y="19">Vivamus dignissim, purus ac faucibus </tspan><tspan x="0" y="43">elementum, risus elit tincidunt lorem.</tspan></text><text class="aa" transform="translate(1262 412)"><tspan x="0" y="19">Integer rutrum gravida lectus sit amet rutrum. </tspan></text><text class="q" transform="translate(1403 215)"><tspan x="401.504" y="15">4:37</tspan></text><text class="q" transform="translate(1403 259)"><tspan x="401.504" y="15">5:02</tspan></text><text class="q" transform="translate(1403 348)"><tspan x="401.504" y="15">7:10</tspan></text><text class="q" transform="translate(1403 412)"><tspan x="392.384" y="15">10:49</tspan></text><text class="m" transform="translate(1287 135)"><tspan x="0" y="0">Tristique</tspan></text><text class="ab" transform="translate(1439 135)"><tspan x="0" y="0">Praesent</tspan></text><text class="aa" transform="translate(1262 457)"><tspan x="0" y="19">Pellentesque sagittis.</tspan></text><text class="aa" transform="translate(1262 501)"><tspan x="0" y="19">Donec vitae enim ut metus maximus </tspan><tspan x="0" y="43">ullamcorper at mollis ex.</tspan></text><text class="aa" transform="translate(1262 566)"><tspan x="0" y="19">Praesent maximus nibh et est pharetra, nec </tspan><tspan x="0" y="43">accumsan nunc ultrices. </tspan></text><text class="aa" transform="translate(1262 631)"><tspan x="0" y="19">Sed tincidunt ligula sit amet facilisis.</tspan></text><text class="aa" transform="translate(1262 675)"><tspan x="0" y="19">Nulla non mauris sit amet neque lobortis </tspan><tspan x="0" y="43">ultrices.</tspan></text><text class="aa" transform="translate(1262 739)"><tspan x="0" y="19">Sed non turpis ut lorem bibendum commodo </tspan><tspan x="0" y="43">eu et tellus. Fusce cursus felis eget massa </tspan><tspan x="0" y="67">cursus, non maximus.</tspan></text><text class="aa" transform="translate(1262 828)"><tspan x="0" y="19" xml:space="preserve">Nullam  facilisis at faucibus et interdum </tspan><tspan x="0" y="43">cursus ligula et gravida.</tspan></text><text class="aa" transform="translate(1262 894)"><tspan x="0" y="19">Integer dapibus, felis sed placerat luctus, mi </tspan><tspan x="0" y="43">erat aliquam quam, at rhoncus leo augue et </tspan><tspan x="0" y="67">justo. </tspan></text><text class="q" transform="translate(1403 457)"><tspan x="392.384" y="15">12:13</tspan></text><text class="q" transform="translate(1403 501)"><tspan x="392.384" y="15">15:00</tspan></text><text class="q" transform="translate(1403 566)"><tspan x="392.384" y="15">18:34</tspan></text><text class="q" transform="translate(1403 631)"><tspan x="392.384" y="15">23:45</tspan></text><text class="q" transform="translate(1403 675)"><tspan x="392.384" y="15">25:19</tspan></text><text class="q" transform="translate(1403 739)"><tspan x="392.384" y="15">28:55</tspan></text><text class="q" transform="translate(1403 824)"><tspan x="392.384" y="15">32:08</tspan></text><text class="q" transform="translate(1403 890)"><tspan x="392.384" y="15">34:57</tspan></text><rect class="s" width="139" height="620" transform="translate(1852 828) rotate(90)"/><text class="i" transform="translate(832 1063)"><tspan x="0" y="0">Auilaquam functum</tspan></text><g class="ac" transform="translate(293 1096)"><g transform="translate(-293 -1096)"><g transform="translate(293 1096)"><g transform="translate(-95 -956)"><rect class="j" width="246.727" height="160" transform="translate(95 956)"/><g transform="translate(95 956)"><path class="c" d="M247,160H0V0H247V160ZM110.033,71.2a1.974,1.974,0,0,0-1.834,1.2L97.385,97.225a2,2,0,0,0,1.833,2.8h48.568a2,2,0,0,0,1.835-2.8L135.41,64.458a2,2,0,0,0-3.67,0L120.1,91.3,111.866,72.4A1.974,1.974,0,0,0,110.033,71.2Z" transform="translate(0)"/></g></g><text class="p" transform="translate(0 170)"><tspan x="0" y="15">Filset label aliquam eu metus at </tspan><tspan x="0" y="37">arcu c.1967 sagittis </tspan></text></g></g><g transform="translate(-25 -1096)"><g transform="translate(293 1096)"><g transform="translate(-95 -956)"><rect class="j" width="246.727" height="160" transform="translate(95 956)"/><g transform="translate(95 956)"><path class="c" d="M247,160H0V0H247V160ZM110.033,71.2a1.974,1.974,0,0,0-1.834,1.2L97.385,97.225a2,2,0,0,0,1.833,2.8h48.568a2,2,0,0,0,1.835-2.8L135.41,64.458a2,2,0,0,0-3.67,0L120.1,91.3,111.866,72.4A1.974,1.974,0,0,0,110.033,71.2Z" transform="translate(0)"/></g></g><text class="p" transform="translate(0 170)"><tspan x="0" y="15">Filset label aliquam eu metus at </tspan><tspan x="0" y="37">arcu c.1967 sagittis </tspan></text></g></g><g transform="translate(243 -1096)"><g transform="translate(293 1096)"><g transform="translate(-95 -956)"><rect class="j" width="246.727" height="160" transform="translate(95 956)"/><g transform="translate(95 956)"><path class="c" d="M247,160H0V0H247V160ZM110.033,71.2a1.974,1.974,0,0,0-1.834,1.2L97.385,97.225a2,2,0,0,0,1.833,2.8h48.568a2,2,0,0,0,1.835-2.8L135.41,64.458a2,2,0,0,0-3.67,0L120.1,91.3,111.866,72.4A1.974,1.974,0,0,0,110.033,71.2Z" transform="translate(0)"/></g></g><text class="p" transform="translate(0 170)"><tspan x="0" y="15">Filset label aliquam eu metus at </tspan><tspan x="0" y="37">arcu c.1967 sagittis </tspan></text></g></g><g transform="translate(511 -1096)"><g transform="translate(293 1096)"><g transform="translate(-95 -956)"><rect class="j" width="246.727" height="160" transform="translate(95 956)"/><g transform="translate(95 956)"><path class="c" d="M247,160H0V0H247V160ZM110.033,71.2a1.974,1.974,0,0,0-1.834,1.2L97.385,97.225a2,2,0,0,0,1.833,2.8h48.568a2,2,0,0,0,1.835-2.8L135.41,64.458a2,2,0,0,0-3.67,0L120.1,91.3,111.866,72.4A1.974,1.974,0,0,0,110.033,71.2Z" transform="translate(0)"/></g></g><text class="p" transform="translate(0 170)"><tspan x="0" y="15">Filset label aliquam eu metus at </tspan><tspan x="0" y="37">arcu c.1967 sagittis </tspan></text></g></g><g transform="translate(779 -1096)"><g transform="translate(293 1096)"><g transform="translate(-95 -956)"><rect class="j" width="246.727" height="160" transform="translate(95 956)"/><g transform="translate(95 956)"><path class="c" d="M247,160H0V0H247V160ZM110.033,71.2a1.974,1.974,0,0,0-1.834,1.2L97.385,97.225a2,2,0,0,0,1.833,2.8h48.568a2,2,0,0,0,1.835-2.8L135.41,64.458a2,2,0,0,0-3.67,0L120.1,91.3,111.866,72.4A1.974,1.974,0,0,0,110.033,71.2Z" transform="translate(0)"/></g></g><text class="p" transform="translate(0 170)"><tspan x="0" y="15">Filset label aliquam eu metus at </tspan><tspan x="0" y="37">arcu c.1967 sagittis </tspan></text></g></g></g></g></g></svg>